<?xml version="1.0" encoding="utf-8"?>
<!-- Generator: Adobe Illustrator 24.1.0, SVG Export Plug-In . SVG Version: 6.00 Build 0)  -->
<svg version="1.1" id="Capa_1" xmlns="http://www.w3.org/2000/svg" xmlns:xlink="http://www.w3.org/1999/xlink" x="0px" y="0px"
	 viewBox="0 0 142 94" style="enable-background:new 0 0 142 94;" xml:space="preserve">
<style type="text/css">
	.st0{fill:#C42E27;}
	.st1{fill:#FFFFFF;}
	.st2{fill:url(#SVGID_1_);}
	.st3{fill:url(#SVGID_2_);}
	.st4{fill:url(#SVGID_3_);}
	.st5{fill:#1D1D1C;}
	.st6{fill:url(#SVGID_4_);}
	.st7{fill:url(#SVGID_5_);}
	.st8{fill:url(#SVGID_6_);}
	.st9{fill:url(#SVGID_7_);}
	.st10{fill:url(#SVGID_8_);}
	.st11{fill:url(#SVGID_9_);}
	.st12{fill:url(#SVGID_10_);}
	.st13{fill:#D1C385;}
	.st14{fill:url(#SVGID_11_);}
	.st15{fill:url(#SVGID_12_);}
	.st16{fill:url(#SVGID_13_);}
	.st17{fill:url(#SVGID_14_);}
	.st18{fill:url(#SVGID_15_);}
	.st19{fill:url(#SVGID_16_);}
	.st20{fill:url(#SVGID_17_);}
	.st21{fill:url(#SVGID_18_);}
	.st22{fill:url(#SVGID_19_);}
</style>
<g>
	<path class="st0" d="M142,91.8c0,1.2-1,2.2-2.2,2.2H2.4c-1.2,0-2.2-1-2.2-2.2V2.2C0.2,1,1.2,0,2.4,0l137.5,0c1.2,0,2.2,1,2.2,2.2
		V91.8z"/>
	<path class="st1" d="M142,82.6l-1.5,1.5l-6.2-6.2l6.2-6.2l1.5,1.5v-6.1l-1.5,1.5l-6.2-6.2l6.2-6.2l1.5,1.5v-6.1l-1.5,1.5l-6.2-6.2
		l6.2-6.2l1.5,1.5v-6.1l-1.5,1.5l-6.2-6.2l6.2-6.2l1.5,1.5v-6.1l-1.5,1.5l-6.2-6.2l6.2-6.2l1.5,1.5V5.3l-1.5,1.5l-6.2-6.2L135,0
		h-4.3l0.6,0.6l-6.2,6.2l-6.2-6.2l0.6-0.6h-4.3l0.6,0.6l-6.2,6.2l-6.2-6.2l0.6-0.6h-4.3l0.6,0.6l-6.2,6.2l-6.2-6.2L88.7,0h-4.3
		L85,0.6l-6.2,6.2l-6.2-6.2L73.3,0h-4.3l0.6,0.6l-6.2,6.2l-6.2-6.2L57.8,0h-4.3l0.6,0.6l-6.2,6.2l-6.2-6.2L42.4,0h-4.3l0.6,0.6
		l-6.2,6.2l-6.2-6.2L27,0h-4.3l0.6,0.6l-6.2,6.2l-6.2-6.2L11.5,0H7.2l0.6,0.6L1.7,6.8L0.2,5.3v6.1l1.5-1.5l6.2,6.2l-6.2,6.2
		l-1.5-1.5v6.1l1.5-1.5l6.2,6.2l-6.2,6.2l-1.5-1.5v6.1l1.5-1.5L7.8,47l-6.2,6.2l-1.5-1.5v6.1l1.5-1.5l6.2,6.2l-6.2,6.2l-1.5-1.5v6.1
		l1.5-1.5l6.2,6.2l-6.2,6.2l-1.5-1.5v6.1l1.5-1.5l6.2,6.2L7.2,94h4.3l-0.6-0.6l6.2-6.2l6.2,6.2L22.6,94H27l-0.6-0.6l6.2-6.2l6.2,6.2
		L38.1,94h4.3l-0.6-0.6l6.2-6.2l6.2,6.2L53.5,94h4.3l-0.6-0.6l6.2-6.2l6.2,6.2L68.9,94h4.3l-0.6-0.6l6.2-6.2l6.2,6.2L84.3,94h4.3
		l-0.6-0.6l6.2-6.2l6.2,6.2L99.8,94h4.3l-0.6-0.6l6.2-6.2l6.2,6.2l-0.6,0.6h4.3l-0.6-0.6l6.2-6.2l6.2,6.2l-0.6,0.6h4.3l-0.6-0.6
		l6.2-6.2l1.5,1.5V82.6z M125.1,84.1l-6.2-6.2l6.2-6.2l6.2,6.2L125.1,84.1z M86.5,48.5l6.2,6.2l-6.2,6.2l-6.2-6.2L86.5,48.5z
		 M71.1,60.9l-6.2-6.2l6.2-6.2l6.2,6.2L71.1,60.9z M78.8,53.2L72.6,47l6.2-6.2L85,47L78.8,53.2z M71.1,45.5l-6.2-6.2l6.2-6.2
		l6.2,6.2L71.1,45.5z M80.3,39.3l6.2-6.2l6.2,6.2l-6.2,6.2L80.3,39.3z M78.8,37.7l-6.2-6.2l6.2-6.2l6.2,6.2L78.8,37.7z M63.4,37.7
		l-6.2-6.2l6.2-6.2l6.2,6.2L63.4,37.7z M61.8,39.3l-6.2,6.2l-6.2-6.2l6.2-6.2L61.8,39.3z M63.4,40.8l6.2,6.2l-6.2,6.2L57.2,47
		L63.4,40.8z M61.8,54.7l-6.2,6.2l-6.2-6.2l6.2-6.2L61.8,54.7z M63.4,56.3l6.2,6.2l-6.2,6.2l-6.2-6.2L63.4,56.3z M78.8,56.3l6.2,6.2
		l-6.2,6.2l-6.2-6.2L78.8,56.3z M94.2,56.3l6.2,6.2l-6.2,6.2l-6.2-6.2L94.2,56.3z M95.8,54.7l6.2-6.2l6.2,6.2l-6.2,6.2L95.8,54.7z
		 M94.2,53.2L88.1,47l6.2-6.2l6.2,6.2L94.2,53.2z M95.8,39.3l6.2-6.2l6.2,6.2l-6.2,6.2L95.8,39.3z M94.2,37.7l-6.2-6.2l6.2-6.2
		l6.2,6.2L94.2,37.7z M95.8,23.8l6.2-6.2l6.2,6.2l-6.2,6.2L95.8,23.8z M86.5,30l-6.2-6.2l6.2-6.2l6.2,6.2L86.5,30z M71.1,30
		l-6.2-6.2l6.2-6.2l6.2,6.2L71.1,30z M55.7,30l-6.2-6.2l6.2-6.2l6.2,6.2L55.7,30z M40.2,30l-6.2-6.2l6.2-6.2l6.2,6.2L40.2,30z
		 M47.9,25.4l6.2,6.2l-6.2,6.2l-6.2-6.2L47.9,25.4z M46.4,39.3l-6.2,6.2l-6.2-6.2l6.2-6.2L46.4,39.3z M47.9,40.8l6.2,6.2l-6.2,6.2
		L41.8,47L47.9,40.8z M46.4,54.7l-6.2,6.2l-6.2-6.2l6.2-6.2L46.4,54.7z M47.9,56.3l6.2,6.2l-6.2,6.2l-6.2-6.2L47.9,56.3z M46.4,70.2
		l-6.2,6.2l-6.2-6.2l6.2-6.2L46.4,70.2z M55.7,64l6.2,6.2l-6.2,6.2l-6.2-6.2L55.7,64z M71.1,64l6.2,6.2l-6.2,6.2l-6.2-6.2L71.1,64z
		 M86.5,64l6.2,6.2l-6.2,6.2l-6.2-6.2L86.5,64z M101.9,64l6.2,6.2l-6.2,6.2l-6.2-6.2L101.9,64z M117.4,64l6.2,6.2l-6.2,6.2l-6.2-6.2
		L117.4,64z M109.7,68.6l-6.2-6.2l6.2-6.2l6.2,6.2L109.7,68.6z M111.2,54.7l6.2-6.2l6.2,6.2l-6.2,6.2L111.2,54.7z M109.7,53.2
		l-6.2-6.2l6.2-6.2l6.2,6.2L109.7,53.2z M111.2,39.3l6.2-6.2l6.2,6.2l-6.2,6.2L111.2,39.3z M109.7,37.7l-6.2-6.2l6.2-6.2l6.2,6.2
		L109.7,37.7z M111.2,23.8l6.2-6.2l6.2,6.2l-6.2,6.2L111.2,23.8z M109.7,22.3l-6.2-6.2l6.2-6.2l6.2,6.2L109.7,22.3z M94.2,22.3
		l-6.2-6.2l6.2-6.2l6.2,6.2L94.2,22.3z M78.8,22.3l-6.2-6.2l6.2-6.2l6.2,6.2L78.8,22.3z M63.4,22.3l-6.2-6.2l6.2-6.2l6.2,6.2
		L63.4,22.3z M47.9,22.3l-6.2-6.2l6.2-6.2l6.2,6.2L47.9,22.3z M32.5,22.3l-6.2-6.2l6.2-6.2l6.2,6.2L32.5,22.3z M31,23.8L24.8,30
		l-6.2-6.2l6.2-6.2L31,23.8z M32.5,25.4l6.2,6.2l-6.2,6.2l-6.2-6.2L32.5,25.4z M31,39.3l-6.2,6.2l-6.2-6.2l6.2-6.2L31,39.3z
		 M32.5,40.8l6.2,6.2l-6.2,6.2L26.3,47L32.5,40.8z M31,54.7l-6.2,6.2l-6.2-6.2l6.2-6.2L31,54.7z M32.5,56.3l6.2,6.2l-6.2,6.2
		l-6.2-6.2L32.5,56.3z M31,70.2l-6.2,6.2l-6.2-6.2l6.2-6.2L31,70.2z M32.5,71.7l6.2,6.2l-6.2,6.2l-6.2-6.2L32.5,71.7z M47.9,71.7
		l6.2,6.2l-6.2,6.2l-6.2-6.2L47.9,71.7z M63.4,71.7l6.2,6.2l-6.2,6.2l-6.2-6.2L63.4,71.7z M78.8,71.7l6.2,6.2l-6.2,6.2l-6.2-6.2
		L78.8,71.7z M94.2,71.7l6.2,6.2l-6.2,6.2l-6.2-6.2L94.2,71.7z M109.7,71.7l6.2,6.2l-6.2,6.2l-6.2-6.2L109.7,71.7z M139,70.2
		l-6.2,6.2l-6.2-6.2l6.2-6.2L139,70.2z M125.1,68.6l-6.2-6.2l6.2-6.2l6.2,6.2L125.1,68.6z M139,54.7l-6.2,6.2l-6.2-6.2l6.2-6.2
		L139,54.7z M125.1,53.2l-6.2-6.2l6.2-6.2l6.2,6.2L125.1,53.2z M139,39.3l-6.2,6.2l-6.2-6.2l6.2-6.2L139,39.3z M125.1,37.7l-6.2-6.2
		l6.2-6.2l6.2,6.2L125.1,37.7z M139,23.8l-6.2,6.2l-6.2-6.2l6.2-6.2L139,23.8z M125.1,22.3l-6.2-6.2l6.2-6.2l6.2,6.2L125.1,22.3z
		 M132.8,2.2l6.2,6.2l-6.2,6.2l-6.2-6.2L132.8,2.2z M117.4,2.2l6.2,6.2l-6.2,6.2l-6.2-6.2L117.4,2.2z M101.9,2.2l6.2,6.2l-6.2,6.2
		l-6.2-6.2L101.9,2.2z M86.5,2.2l6.2,6.2l-6.2,6.2l-6.2-6.2L86.5,2.2z M71.1,2.2l6.2,6.2l-6.2,6.2l-6.2-6.2L71.1,2.2z M55.7,2.2
		l6.2,6.2l-6.2,6.2l-6.2-6.2L55.7,2.2z M40.2,2.2l6.2,6.2l-6.2,6.2l-6.2-6.2L40.2,2.2z M24.8,2.2L31,8.4l-6.2,6.2l-6.2-6.2L24.8,2.2
		z M3.2,8.4l6.2-6.2l6.2,6.2l-6.2,6.2L3.2,8.4z M17.1,9.9l6.2,6.2l-6.2,6.2l-6.2-6.2L17.1,9.9z M3.2,23.8l6.2-6.2l6.2,6.2L9.4,30
		L3.2,23.8z M17.1,25.4l6.2,6.2l-6.2,6.2l-6.2-6.2L17.1,25.4z M3.2,39.3l6.2-6.2l6.2,6.2l-6.2,6.2L3.2,39.3z M17.1,40.8l6.2,6.2
		l-6.2,6.2L10.9,47L17.1,40.8z M3.2,54.7l6.2-6.2l6.2,6.2l-6.2,6.2L3.2,54.7z M17.1,56.3l6.2,6.2l-6.2,6.2l-6.2-6.2L17.1,56.3z
		 M3.2,70.2L9.4,64l6.2,6.2l-6.2,6.2L3.2,70.2z M17.1,71.7l6.2,6.2l-6.2,6.2l-6.2-6.2L17.1,71.7z M9.4,91.8l-6.2-6.2l6.2-6.2
		l6.2,6.2L9.4,91.8z M24.8,91.8l-6.2-6.2l6.2-6.2l6.2,6.2L24.8,91.8z M40.2,91.8l-6.2-6.2l6.2-6.2l6.2,6.2L40.2,91.8z M55.7,91.8
		l-6.2-6.2l6.2-6.2l6.2,6.2L55.7,91.8z M71.1,91.8l-6.2-6.2l6.2-6.2l6.2,6.2L71.1,91.8z M86.5,91.8l-6.2-6.2l6.2-6.2l6.2,6.2
		L86.5,91.8z M101.9,91.8l-6.2-6.2l6.2-6.2l6.2,6.2L101.9,91.8z M117.4,91.8l-6.2-6.2l6.2-6.2l6.2,6.2L117.4,91.8z M132.8,91.8
		l-6.2-6.2l6.2-6.2l6.2,6.2L132.8,91.8z"/>
</g>
<path class="st1" d="M71,77L71,77c-16.6,0-30-13.4-30-30v0c0-16.6,13.4-30,30-30h0c16.6,0,30,13.4,30,30v0C101,63.6,87.6,77,71,77z"
	/>
<g>
	<linearGradient id="SVGID_1_" gradientUnits="userSpaceOnUse" x1="94.8659" y1="50.0276" x2="47.4082" y2="48.3786">
		<stop  offset="0" style="stop-color:#FFCD00"/>
		<stop  offset="0.2653" style="stop-color:#F6CA09"/>
		<stop  offset="0.4907" style="stop-color:#FFCD00"/>
		<stop  offset="0.5995" style="stop-color:#FFF4D3"/>
		<stop  offset="0.7053" style="stop-color:#FFCD00"/>
	</linearGradient>
	<path class="st2" d="M48.6,49.4l1-2.8c0,0-1.6-2.3,0-4.1c0.9-0.9,2-0.9,3.9-0.5c1.8,0.4,9.1,2.8,17.6,2.7c8.5,0,15.8-2.3,17.6-2.7
		c1.9-0.5,3-0.4,3.9,0.5c1.6,1.9,0,4.1,0,4.1l1,2.8l1.3,3.7c0,0-9.7,4.1-23.8,4.1c-14,0-23.8-4.1-23.8-4.1L48.6,49.4z"/>
	<g>
		<linearGradient id="SVGID_2_" gradientUnits="userSpaceOnUse" x1="47.5262" y1="45.3777" x2="94.4653" y2="45.3777">
			<stop  offset="0" style="stop-color:#D1C385"/>
			<stop  offset="5.633800e-02" style="stop-color:#E6E0D3"/>
			<stop  offset="0.1521" style="stop-color:#9C926F"/>
			<stop  offset="0.2479" style="stop-color:#9C926F"/>
			<stop  offset="0.2634" style="stop-color:#A49972"/>
			<stop  offset="0.3577" style="stop-color:#D1C385"/>
			<stop  offset="0.4592" style="stop-color:#FFFFFF"/>
			<stop  offset="0.569" style="stop-color:#D1C385"/>
			<stop  offset="0.6017" style="stop-color:#CABC82"/>
			<stop  offset="0.6438" style="stop-color:#B6AA7A"/>
			<stop  offset="0.6841" style="stop-color:#9C926F"/>
			<stop  offset="0.7067" style="stop-color:#A69B73"/>
			<stop  offset="0.7423" style="stop-color:#C1B47E"/>
			<stop  offset="0.7585" style="stop-color:#D1C385"/>
			<stop  offset="0.8427" style="stop-color:#FFFFFF"/>
			<stop  offset="1" style="stop-color:#D1C385"/>
		</linearGradient>
		<path class="st3" d="M71,44.8c8.5,0,15.8-2.3,17.6-2.7c1.9-0.5,3-0.4,3.9,0.5c1.6,1.9,0,4.1,0,4.1l1.1,3.1c0,0,2.3-4.2-0.6-7.5
			c-1.1-1.2-2.5-1.5-4.2-1.4c-2.1,0.2-8.3,2.6-17.9,2.6c-9.5,0-15.8-2.4-17.9-2.6c-1.6-0.1-3.1,0.2-4.2,1.4
			c-2.9,3.3-0.6,7.6-0.6,7.6l1.1-3.2c0,0-1.6-2.3,0-4.1c0.9-0.9,2-0.9,3.9-0.5C55.2,42.5,62.5,44.8,71,44.8z"/>
	</g>
	<linearGradient id="SVGID_3_" gradientUnits="userSpaceOnUse" x1="94.8659" y1="50.0276" x2="47.4082" y2="48.3786">
		<stop  offset="0.4907" style="stop-color:#F6CA09"/>
		<stop  offset="0.5995" style="stop-color:#F7EACD"/>
		<stop  offset="0.7053" style="stop-color:#F6CA09"/>
	</linearGradient>
	<path class="st4" d="M48.6,49.4l1-2.8c0,0-1.6-2.3,0-4.1c0.9-0.9,2-0.9,3.9-0.5c1.8,0.4,9.1,2.8,17.6,2.7c8.5,0,15.8-2.3,17.6-2.7
		c1.9-0.5,3-0.4,3.9,0.5c1.6,1.9,0,4.1,0,4.1l1,2.8l1.3,3.7c0,0-9.7,4.1-23.8,4.1c-14,0-23.8-4.1-23.8-4.1L48.6,49.4z"/>
	<g>
		<g>
			<path class="st5" d="M90,44.8c0,0.2,0,0.3-0.1,0.5c-0.1,0.2-0.2,0.3-0.4,0.3c-0.2,0-0.3,0-0.5-0.1c-0.2-0.1-0.3-0.2-0.3-0.4
				c-0.1-0.2,0-0.3,0.1-0.5c0.1-0.2,0.2-0.3,0.4-0.3c0.2-0.1,0.3,0,0.5,0.1C89.8,44.4,89.9,44.6,90,44.8z M89.9,44.8
				c0-0.2-0.1-0.3-0.3-0.3c-0.1-0.1-0.3-0.1-0.4-0.1c-0.2,0-0.3,0.1-0.3,0.3c-0.1,0.1-0.1,0.3-0.1,0.4c0,0.2,0.1,0.3,0.3,0.3
				c0.1,0.1,0.3,0.1,0.4,0.1c0.2,0,0.3-0.1,0.3-0.3C89.9,45.1,89.9,44.9,89.9,44.8z M89.8,45.2l-0.2,0L89.3,45l-0.1,0l0.1,0.3
				l-0.1,0L89,44.6l0.2-0.1c0,0,0.1,0,0.1,0c0,0,0.1,0,0.1,0c0,0,0.1,0,0.1,0c0,0,0,0,0,0.1c0,0,0,0.1,0,0.1c0,0,0,0.1-0.1,0.1
				L89.8,45.2z M89.4,44.7C89.4,44.7,89.4,44.7,89.4,44.7C89.4,44.7,89.4,44.7,89.4,44.7c-0.1-0.1-0.1-0.1-0.1-0.1c0,0,0,0-0.1,0
				l-0.1,0l0.1,0.2l0.1,0c0,0,0,0,0.1,0c0,0,0,0,0,0C89.4,44.8,89.4,44.8,89.4,44.7C89.4,44.8,89.4,44.8,89.4,44.7z"/>
		</g>
		<g>
			
				<linearGradient id="SVGID_4_" gradientUnits="userSpaceOnUse" x1="59.0091" y1="74.8826" x2="64.6809" y2="75.5047" gradientTransform="matrix(1 -6.800000e-03 6.800000e-03 1 0.1861 -24.0558)">
				<stop  offset="2.747200e-02" style="stop-color:#D0D0D0"/>
				<stop  offset="0.7303" style="stop-color:#FFFFFF"/>
				<stop  offset="1" style="stop-color:#D0D0D0"/>
			</linearGradient>
			<path class="st6" d="M64.4,49.5c0.2-1.7-1.2-2.3-2.5-2.5c-0.1,0-0.1,0-0.2,0c-0.4-0.1-1.6-0.4-2-0.5c-0.1,0.3-0.1,0.3-0.1,0.6
				c0.3,0.1,0.4,0.4,0.3,0.8c-0.4,1.9-0.8,4-1.3,5.9c0.7,0.2,0.9,0.2,1.6,0.3c0,0,0.4-2.3,0.6-3.3c0.2,0.2,0.5,0.4,0.7,0.9
				c0.4,1.2,1.1,2.8,1.1,2.9c0.7,0.1,1.2,0.2,1.9,0.3c0,0-1.1-2.4-1.5-3.7C63.5,51,64.3,50.5,64.4,49.5z M63,49.3
				c-0.1,0.9-0.9,1.3-1.6,1.1c-0.1,0-0.3-0.1-0.5-0.1c0.2-1,0.3-1.4,0.4-2.4c0.2,0,0.4,0.1,0.5,0.1C62.7,48.2,63.1,48.4,63,49.3z"/>
			
				<linearGradient id="SVGID_5_" gradientUnits="userSpaceOnUse" x1="1690.1664" y1="-832.0219" x2="1682.1606" y2="-833.1913" gradientTransform="matrix(1 -6.800000e-03 6.800000e-03 1 -1626.6929 893.0369)">
				<stop  offset="2.747200e-02" style="stop-color:#D0D0D0"/>
				<stop  offset="0.7303" style="stop-color:#FFFFFF"/>
				<stop  offset="1" style="stop-color:#D0D0D0"/>
			</linearGradient>
			<path class="st7" d="M55.4,52c-1.6-0.5-1.4-2.4-1-3.7c0.2-0.8,0.8-2.5,2.1-1.9c0.7,0.3,0.7,0.8,0.7,1.3c0.6,0.2,1,0.3,1.6,0.5
				c0.3-1.7-0.6-2.2-1.9-2.7c-1.9-0.7-3.3,0.7-3.9,2.5c-0.7,2-0.1,4.1,2,4.7c0.8,0.2,1.6,0.4,2.5,0.3c0.1-0.5,0.2-0.7,0.3-1.2
				C56.8,52.2,56.3,52.3,55.4,52z"/>
			
				<linearGradient id="SVGID_6_" gradientUnits="userSpaceOnUse" x1="79.1121" y1="75.5554" x2="86.5066" y2="74.3954" gradientTransform="matrix(1 -6.800000e-03 6.800000e-03 1 0.1861 -24.0558)">
				<stop  offset="2.747200e-02" style="stop-color:#D0D0D0"/>
				<stop  offset="0.7303" style="stop-color:#FFFFFF"/>
				<stop  offset="1" style="stop-color:#D0D0D0"/>
			</linearGradient>
			<path class="st8" d="M81.1,47.1c-0.5,2.6-1,5.1-1.6,7.6c0.5-0.1,0.6-0.1,1.1-0.2c0.4-1.8,0.8-3.6,1.1-5.4c0.6,1,1,1.5,1.7,2.5
				c-0.5,0.1-0.8,0.2-1.3,0.3c-0.1,0.3-0.1,0.5-0.2,0.8c1-0.2,1.9-0.4,2.6,0.6c0.1,0.2,0.1,0.2,0.3,0.4c0.6-0.2,1.1-0.3,1.8-0.4
				c-1.4-2.1-2.8-4.2-4.1-6.4C81.9,46.9,81.5,47,81.1,47.1z"/>
			
				<linearGradient id="SVGID_7_" gradientUnits="userSpaceOnUse" x1="1701.6328" y1="-829.8934" x2="1697.2302" y2="-830.2388" gradientTransform="matrix(1 -6.800000e-03 6.800000e-03 1 -1626.6929 893.0369)">
				<stop  offset="2.747200e-02" style="stop-color:#D0D0D0"/>
				<stop  offset="0.7303" style="stop-color:#FFFFFF"/>
				<stop  offset="1" style="stop-color:#D0D0D0"/>
			</linearGradient>
			<path class="st9" d="M65.7,48.1c0,0,0.6,0.2,0.5,1c-0.2,1.9-0.4,4-0.6,5.9c0.7,0.1,0.9,0.1,1.6,0.2c0.2-2.4,0.4-4.9,0.5-7.3
				c-1-0.1-1-0.1-2-0.2C65.7,47.9,65.7,47.9,65.7,48.1z"/>
			
				<linearGradient id="SVGID_8_" gradientUnits="userSpaceOnUse" x1="85.2948" y1="74.2282" x2="90.5071" y2="72.8716" gradientTransform="matrix(1 -6.800000e-03 6.800000e-03 1 0.1861 -24.0558)">
				<stop  offset="2.747200e-02" style="stop-color:#D0D0D0"/>
				<stop  offset="0.7303" style="stop-color:#FFFFFF"/>
				<stop  offset="1" style="stop-color:#D0D0D0"/>
			</linearGradient>
			<path class="st10" d="M91.5,50c-0.3,0.1-0.3,0.1-0.6,0.2c0,0.5-0.4,0.8-1,1c-0.4,0.1-1.2,0.4-1.3,0.4c-0.1-0.1-1.2-4.2-1.7-6
				c-1,0.3-1,0.3-2,0.6c0.1,0.3,0.1,0.2,0.1,0.5c0,0,0.6,0,0.8,0.8c0.5,1.9,0.9,3.7,1.4,5.6c1.6-0.5,3.2-1,4.8-1.6
				C91.7,50.7,91.7,50.7,91.5,50z"/>
			
				<linearGradient id="SVGID_9_" gradientUnits="userSpaceOnUse" x1="1706.9167" y1="-829.6234" x2="1698.2014" y2="-830.1462" gradientTransform="matrix(1 -6.800000e-03 6.800000e-03 1 -1626.6929 893.0369)">
				<stop  offset="2.747200e-02" style="stop-color:#D0D0D0"/>
				<stop  offset="0.7303" style="stop-color:#FFFFFF"/>
				<stop  offset="1" style="stop-color:#D0D0D0"/>
			</linearGradient>
			<path class="st11" d="M70.4,49.5c-0.1-0.4,0.2-0.7,0.6-0.7c0.7,0,1.5,0.5,2.2,0.8c0-0.5,0-1,0-1.5c-0.6-0.1-1.1-0.2-1.7-0.2
				c-1.4,0-2.4,0.6-2.5,1.9c-0.1,2.3,3.3,2.2,3.5,3.7c0.1,0.6-0.8,1-1.4,1c-0.8,0-1.6-0.4-2.3-0.8c0,0.6,0,0.9-0.1,1.5
				c0.7,0.2,1.3,0.3,2,0.4c1.3,0,3.2-0.7,3.2-2.4C73.9,50.9,70.6,51,70.4,49.5z"/>
			
				<linearGradient id="SVGID_10_" gradientUnits="userSpaceOnUse" x1="72.8945" y1="75.4565" x2="79.0029" y2="75.8729" gradientTransform="matrix(1 -6.800000e-03 6.800000e-03 1 0.1861 -24.0558)">
				<stop  offset="2.747200e-02" style="stop-color:#D0D0D0"/>
				<stop  offset="0.7303" style="stop-color:#FFFFFF"/>
				<stop  offset="1" style="stop-color:#D0D0D0"/>
			</linearGradient>
			<path class="st12" d="M79.8,47.3c-0.1,0,0,0-0.2,0c-0.8,0.1-1.2,0.2-2,0.3c-1.4,0.2-2.1,0.2-3.5,0.3c0,0.8,0,0.8,0,1.6
				c0.2,0,0.3,0,0.5,0c0.1-0.6,0.2-0.6,1.4-0.7c0.2,2.1,0.3,4.2,0.5,6.3c0.7-0.1,1-0.1,1.6-0.2c-0.2-2.1-0.4-4.2-0.6-6.3
				c0,0,0.1,0,0.2,0c0.2,0,0.3,0,0.5-0.1c0.4,0,1,0,1.3,0.1C79.7,48.2,79.7,47.8,79.8,47.3z"/>
		</g>
		<g>
			<path class="st13" d="M61.5,46.6c-0.1,0-0.1,0-0.2,0c-0.4-0.1-1.6-0.4-1.9-0.4l-0.1,0l0,0.1c-0.1,0.3-0.1,0.3-0.1,0.6l0,0.1
				l0.1,0c0.2,0.1,0.3,0.2,0.3,0.5c0,0.1,0,0.1,0,0.2c-0.4,1.9-0.8,3.9-1.2,5.8l0,0.1l0.1,0c0.7,0.2,1.8,0.4,1.8,0.4s0.4-2,0.5-3
				c0.1,0.1,0.3,0.4,0.4,0.6c0.2,0.6,0.5,1.2,0.7,1.8c0.1,0.3,0.2,0.5,0.3,0.7c0,0.1,0.1,0.3,0.1,0.3l0,0.1c0.7,0.1,2.1,0.3,2.1,0.3
				s-1.1-2.4-1.4-3.5c0.7-0.3,1.4-0.9,1.5-1.9c0-0.1,0-0.2,0-0.3C64.3,47.3,62.7,46.7,61.5,46.6z M62.5,48.7c0,0.1,0,0.2,0,0.3l0,0
				c-0.1,0.7-0.6,1-1.2,1.1c-0.1,0-0.2,0-0.3,0c-0.1,0-0.2,0-0.2,0c0.2-0.9,0.3-1.4,0.4-2.3c0.1,0,0.2,0,0.3,0.1
				C62.2,47.9,62.5,48.1,62.5,48.7z M61.5,46.7L61.5,46.7L61.5,46.7L61.5,46.7z"/>
			<path class="st13" d="M56,51.7c-0.3,0-0.5,0-0.9-0.1c-0.9-0.3-1.2-1-1.2-1.8c0-0.5,0.1-1.1,0.3-1.6c0.2-0.7,0.8-1.9,1.5-1.9
				c0.1,0,0.2,0,0.3,0.1c0.5,0.2,0.6,0.4,0.6,0.8c0,0.1,0,0.2,0,0.3l0,0.1l0.1,0c0.6,0.2,1,0.3,1.6,0.4l0.1,0l0-0.1
				c0-0.1,0-0.2,0-0.3c0-1.3-0.8-1.9-2-2.4c-0.3-0.1-0.7-0.2-1-0.2c-1.5,0-2.6,1.2-3.1,2.7c-0.2,0.5-0.3,1.1-0.3,1.6
				c0,1.5,0.8,2.8,2.4,3.3c0.7,0.2,1.4,0.3,2.1,0.3c0.2,0,0.3,0,0.5,0l0.1,0l0-0.1c0.1-0.5,0.2-0.7,0.3-1.2l0.1-0.2l-0.2,0.1
				C56.8,51.6,56.4,51.7,56,51.7z"/>
			<path class="st13" d="M81.8,46.5L81.8,46.5l-0.1-0.1c-0.4,0.1-0.6,0.1-1.1,0.2l-0.1,0l0,0.1c-0.5,2.6-1,5.1-1.6,7.6l0,0.2l0.2,0
				c0.5-0.1,0.7-0.1,1.2-0.2l0.1,0l0-0.1c0.4-1.7,0.8-3.4,1.1-5.1c0.5,0.8,0.8,1.3,1.3,2.1c-0.4,0.1-0.7,0.1-1.2,0.2l-0.1,0l0,0.1
				c-0.1,0.3-0.1,0.5-0.1,0.8l0,0.2l0.2,0c0.4-0.1,0.8-0.2,1.1-0.2c0.5,0,0.9,0.1,1.3,0.7c0.1,0.2,0.2,0.2,0.3,0.4l0,0.1l0.1,0
				c0.6-0.2,1-0.2,1.6-0.4l0.2,0L85.9,53C84.5,50.9,83.1,48.8,81.8,46.5z"/>
			<path class="st13" d="M65.3,47.2l-0.1,0l0,0.1c0,0.3,0,0.3-0.1,0.5l0,0.1l0.1,0c0,0,0,0,0.1,0c0.1,0.1,0.3,0.2,0.4,0.7
				c0,0,0,0.1,0,0.1c-0.2,1.9-0.4,3.9-0.6,5.8l0,0.1l0.1,0c0.7,0.1,1,0.1,1.7,0.2l0.1,0l0-0.1c0.2-2.4,0.3-4.8,0.5-7.2l0-0.1l-0.1,0
				C66.4,47.3,66.3,47.3,65.3,47.2z"/>
			<path class="st13" d="M91.6,51.2c-0.2-0.7-0.2-0.7-0.5-1.4l0-0.1l-0.1,0c-0.3,0.1-0.2,0.1-0.5,0.2v0c0,0,0,0,0,0c0,0,0,0.1,0,0.1
				c0,0.4-0.3,0.7-0.9,0.9c-0.2,0.1-0.5,0.2-0.8,0.3c-0.2,0.1-0.4,0.1-0.5,0.1c-0.2-0.6-1.2-4.2-1.7-5.9l0-0.1l-0.1,0
				c-0.9,0.3-1,0.3-2,0.6l-0.1,0l0,0.1c0.1,0.2,0.1,0.2,0.1,0.5l0,0.1l0.1,0c0,0,0.1,0,0.3,0.1c0.1,0.1,0.3,0.2,0.4,0.6
				c0.5,1.9,0.9,3.8,1.4,5.6l0,0.1l0.1,0c1.6-0.5,3.2-1,4.7-1.6l0.1,0L91.6,51.2z"/>
			<path class="st13" d="M72.1,50.7c-0.9-0.4-1.7-0.8-1.8-1.4c0,0,0,0,0-0.1c0-0.3,0.3-0.5,0.6-0.5l0,0h0c0.7,0,1.3,0.3,1.9,0.6
				l0.2,0.1l0-0.2c0-0.5,0-0.8,0-1.3l0-0.1l-0.1,0c-0.6-0.1-1.2-0.2-1.8-0.2c0,0,0,0-0.1,0c-1.4,0-2.5,0.7-2.5,2c0,0,0,0.1,0,0.1
				c0,1.2,0.9,1.7,1.7,2.2c0.9,0.4,1.7,0.8,1.8,1.5c0,0,0,0.1,0,0.1c0,0.2-0.1,0.4-0.4,0.5c-0.2,0.1-0.6,0.2-0.8,0.2c0,0,0,0,0,0
				c-0.8,0-1.5-0.4-2.2-0.8l-0.2-0.1l0,0.2c0,0.6,0,0.8-0.1,1.4l0,0.1l0.1,0c0.7,0.2,1.4,0.4,2.2,0.4c0,0,0.1,0,0.1,0
				c1.3,0,3.2-0.6,3.2-2.3c0,0,0,0,0-0.1C73.8,51.6,72.9,51.1,72.1,50.7z"/>
			<path class="st13" d="M77.8,48.3c0.2,0,0.5,0,0.7,0c0.3,0,0.5,0,0.7,0.1l0.1,0l0-0.1c0.1-0.5,0.2-0.7,0.3-1.2l0-0.2l-0.2,0
				c-0.1,0-0.2,0-0.3,0c-0.8,0.1-1.2,0.2-2,0.3c-1.4,0.2-2.1,0.2-3.5,0.3l-0.1,0l0,0.1c0,0.8,0,0.7,0,1.5l0,0.1l0.1,0
				c0.2,0,0.4,0,0.6,0l0.1,0l0-0.1c0.1-0.2,0.1-0.4,0.3-0.4c0.1-0.1,0.4-0.1,0.7-0.1c0.2,2.1,0.3,4.1,0.5,6.2l0,0.1l0.1,0
				c0.7-0.1,1-0.1,1.7-0.2l0.1,0l0-0.1c-0.2-2.1-0.4-4.1-0.6-6.2c0,0,0,0,0,0C77.5,48.4,77.6,48.3,77.8,48.3z"/>
		</g>
		<g>
			<path class="st5" d="M64.1,49.2c0.2-1.7-1.4-2.3-2.7-2.5c-0.1,0-0.1,0-0.2,0c-0.4-0.1-1.6-0.4-2-0.5c-0.1,0.3-0.1,0.3-0.1,0.6
				c0.3,0.1,0.4,0.4,0.3,0.8c-0.4,1.9-0.8,3.9-1.2,5.8c0.7,0.2,1,0.2,1.7,0.4c0,0,0.4-2.1,0.6-3.1c0.2,0.2,0.4,0.4,0.6,0.8
				c0.4,1.2,1,2.7,1,2.7c0.7,0.1,1.1,0.2,1.8,0.3c0,0-1-2.2-1.4-3.4C63.3,50.8,64,50.3,64.1,49.2z M62.6,49
				c-0.1,0.9-0.9,1.3-1.6,1.1c-0.1,0-0.2,0-0.4-0.1c0.2-1,0.3-1.5,0.5-2.5c0.2,0,0.3,0.1,0.4,0.1C62.3,47.8,62.7,48.1,62.6,49z"/>
			<path class="st5" d="M55.1,51.7c-1.6-0.5-1.4-2.3-1-3.6c0.3-0.8,0.9-2.3,2-1.9c0.7,0.2,0.7,0.7,0.7,1.3c0.6,0.2,1,0.3,1.6,0.4
				c0.1-1.5-0.6-2.1-1.9-2.6c-1.9-0.6-3.3,0.7-3.9,2.5c-0.7,2-0.1,4.1,2,4.7c0.8,0.2,1.7,0.3,2.5,0.3c0.1-0.5,0.2-0.7,0.3-1.2
				C56.5,51.8,56,51.9,55.1,51.7z"/>
			<path class="st5" d="M80.7,46.8c-0.5,2.6-1,5.1-1.6,7.6c0.5-0.1,0.7-0.1,1.2-0.2c0.4-1.8,0.8-3.6,1.1-5.4c0.6,1,0.9,1.5,1.5,2.5
				c-0.5,0.1-0.8,0.2-1.3,0.3c-0.1,0.3-0.1,0.5-0.1,0.8c1-0.2,1.9-0.4,2.6,0.6c0.1,0.2,0.2,0.2,0.3,0.4c0.6-0.2,1-0.2,1.6-0.4
				c-1.4-2.1-2.8-4.3-4.1-6.5C81.3,46.7,81.1,46.7,80.7,46.8z"/>
			<path class="st5" d="M65.3,47.8c0,0,0.6,0.2,0.5,1c-0.2,1.9-0.4,3.9-0.6,5.8c0.7,0.1,1,0.1,1.7,0.2c0.2-2.4,0.3-4.8,0.5-7.2
				c-1-0.1-1.1-0.1-2.1-0.2C65.3,47.6,65.3,47.6,65.3,47.8z"/>
			<path class="st5" d="M91,49.7c-0.3,0.1-0.2,0.1-0.5,0.2c0,0.5-0.4,0.8-1,1c-0.4,0.1-1.2,0.4-1.3,0.4c-0.1-0.1-1.2-4.2-1.7-6
				c-1,0.3-1,0.3-2,0.6c0.1,0.2,0.1,0.2,0.1,0.5c0,0,0.6,0,0.8,0.8c0.5,1.9,0.9,3.8,1.4,5.6c1.6-0.5,3.2-1,4.7-1.6
				C91.3,50.5,91.3,50.5,91,49.7z"/>
			<path class="st5" d="M70.1,49.2c-0.1-0.4,0.3-0.7,0.7-0.7c0.7,0,1.3,0.3,2,0.6c0-0.5,0-0.8,0-1.3c-0.6-0.1-1.2-0.2-1.8-0.2
				c-1.4,0-2.4,0.6-2.5,1.9c-0.1,2.3,3.3,2.2,3.5,3.7c0.1,0.6-0.8,1-1.4,1c-0.8,0-1.6-0.4-2.3-0.8c0,0.6,0,0.8-0.1,1.4
				c0.7,0.2,1.4,0.4,2.1,0.4c1.3,0,3.2-0.6,3.2-2.3C73.7,50.6,70.4,50.8,70.1,49.2z"/>
			<path class="st5" d="M79.5,47c-0.1,0-0.2,0-0.3,0c-0.8,0.1-1.2,0.2-2,0.3c-1.4,0.2-2.1,0.2-3.5,0.3c0,0.8,0,0.7,0,1.5
				c0.2,0,0.4,0,0.6,0c0.1-0.5,0.4-0.6,1.3-0.7c0.2,2.1,0.3,4.2,0.5,6.3c0.7-0.1,1-0.1,1.7-0.2c-0.2-2.1-0.4-4.2-0.6-6.3
				c0.1,0,0.1,0,0.1,0c0.2,0,0.3,0,0.5-0.1c0.4,0,1.1-0.1,1.5,0C79.4,47.7,79.4,47.5,79.5,47z"/>
		</g>
	</g>
	
		<linearGradient id="SVGID_11_" gradientUnits="userSpaceOnUse" x1="1242.2233" y1="-864.5672" x2="1255.2498" y2="-864.5672" gradientTransform="matrix(-1 0 0 1 1319.709 906.0679)">
		<stop  offset="2.747200e-02" style="stop-color:#BDBDBC"/>
		<stop  offset="0.7303" style="stop-color:#FFFFFF"/>
		<stop  offset="1" style="stop-color:#9F9D9D"/>
	</linearGradient>
	<path class="st14" d="M71,37.4c3.5,0,6.5,1.6,6.5,1.6s-0.3,0.9-0.8,2.3c-1,2.4-3.2,4.3-5.7,4.3c-2.5,0-4.7-1.9-5.7-4.3
		c-0.6-1.4-0.8-2.3-0.8-2.3S67.5,37.4,71,37.4"/>
	
		<linearGradient id="SVGID_12_" gradientUnits="userSpaceOnUse" x1="1248.5642" y1="-860.6033" x2="1248.7563" y2="-868.6703" gradientTransform="matrix(-1 0 0 1 1319.709 906.0679)">
		<stop  offset="0" style="stop-color:#25913F"/>
		<stop  offset="9.356630e-02" style="stop-color:#1D7A3A"/>
		<stop  offset="0.2019" style="stop-color:#166635"/>
		<stop  offset="0.3186" style="stop-color:#10562F"/>
		<stop  offset="0.4446" style="stop-color:#0B4B2A"/>
		<stop  offset="0.5845" style="stop-color:#084327"/>
		<stop  offset="0.7491" style="stop-color:#063E24"/>
		<stop  offset="1" style="stop-color:#053D23"/>
	</linearGradient>
	<path class="st15" d="M71,37.4c2.5,0,4.8,0.9,4.8,0.9s-0.3,1.5-0.7,2.9c-0.7,2.4-2.6,4.2-4.1,4.2c-1.5,0-3.4-1.8-4.1-4.2
		c-0.4-1.4-0.7-2.9-0.7-2.9S68.4,37.4,71,37.4"/>
	<g>
		<linearGradient id="SVGID_13_" gradientUnits="userSpaceOnUse" x1="47.8457" y1="41.9761" x2="94.2414" y2="41.9761">
			<stop  offset="0" style="stop-color:#D1C385"/>
			<stop  offset="5.633800e-02" style="stop-color:#ECE6D6"/>
			<stop  offset="0.1521" style="stop-color:#BDAF7F"/>
			<stop  offset="0.1977" style="stop-color:#AA9F76"/>
			<stop  offset="0.2479" style="stop-color:#9C926F"/>
			<stop  offset="0.2634" style="stop-color:#A49972"/>
			<stop  offset="0.3577" style="stop-color:#D1C385"/>
			<stop  offset="0.4592" style="stop-color:#FFFFFF"/>
			<stop  offset="0.569" style="stop-color:#D1C385"/>
			<stop  offset="0.6017" style="stop-color:#CABC82"/>
			<stop  offset="0.6438" style="stop-color:#B6AA7A"/>
			<stop  offset="0.6841" style="stop-color:#9C926F"/>
			<stop  offset="0.7067" style="stop-color:#A69B73"/>
			<stop  offset="0.7423" style="stop-color:#C1B47E"/>
			<stop  offset="0.7585" style="stop-color:#D1C385"/>
			<stop  offset="0.8427" style="stop-color:#FFFFFF"/>
			<stop  offset="1" style="stop-color:#D1C385"/>
		</linearGradient>
		<path class="st16" d="M65.6,38.5c0,0,0.2,1.6,0.9,3.5c0.9,2.4,2.8,3.3,3.4,3.5c0.1,0-2.8-0.4-4.1-2.8c-0.8-1.4-1.4-3.8-1.4-3.8
			L65.6,38.5z"/>
		<linearGradient id="SVGID_14_" gradientUnits="userSpaceOnUse" x1="47.8451" y1="41.9761" x2="94.2433" y2="41.9761">
			<stop  offset="0" style="stop-color:#D1C385"/>
			<stop  offset="5.633800e-02" style="stop-color:#ECE6D6"/>
			<stop  offset="0.1521" style="stop-color:#9C926F"/>
			<stop  offset="0.2479" style="stop-color:#9C926F"/>
			<stop  offset="0.2634" style="stop-color:#A49972"/>
			<stop  offset="0.3577" style="stop-color:#D1C385"/>
			<stop  offset="0.4592" style="stop-color:#FFFFFF"/>
			<stop  offset="0.569" style="stop-color:#D1C385"/>
			<stop  offset="0.6017" style="stop-color:#CABC82"/>
			<stop  offset="0.6438" style="stop-color:#B6AA7A"/>
			<stop  offset="0.6841" style="stop-color:#9C926F"/>
			<stop  offset="0.7067" style="stop-color:#A69B73"/>
			<stop  offset="0.7423" style="stop-color:#C1B47E"/>
			<stop  offset="0.7585" style="stop-color:#D1C385"/>
			<stop  offset="0.8427" style="stop-color:#FFFFFF"/>
			<stop  offset="1" style="stop-color:#D1C385"/>
		</linearGradient>
		<path class="st17" d="M77.5,38.9c0,0-0.5,2.3-1.4,3.8c-1.4,2.4-4.3,2.8-4.1,2.8c0.6-0.2,2.5-1.1,3.4-3.5c0.7-1.9,0.9-3.5,0.9-3.5
			L77.5,38.9z"/>
	</g>
	<g>
		<g>
			
				<linearGradient id="SVGID_15_" gradientUnits="userSpaceOnUse" x1="832.966" y1="-756.5612" x2="835.4266" y2="-756.5612" gradientTransform="matrix(1.1602 -1.600000e-02 -1.600000e-02 1.1602 -908.9903 930.3757)">
				<stop  offset="0" style="stop-color:#9C926F"/>
				<stop  offset="0.2515" style="stop-color:#D1C385"/>
				<stop  offset="0.5" style="stop-color:#ECE6D6"/>
				<stop  offset="0.75" style="stop-color:#D1C385"/>
				<stop  offset="1" style="stop-color:#9C926F"/>
			</linearGradient>
			<polygon class="st18" points="71,43.1 69.5,37.5 71,35.5 72.4,37.5 			"/>
			<linearGradient id="SVGID_16_" gradientUnits="userSpaceOnUse" x1="70.3431" y1="35.8883" x2="70.3431" y2="43.234">
				<stop  offset="0" style="stop-color:#ADA17A"/>
				<stop  offset="0.1534" style="stop-color:#D1C385"/>
				<stop  offset="0.319" style="stop-color:#ECE6D6"/>
				<stop  offset="0.6687" style="stop-color:#D1C385"/>
				<stop  offset="1" style="stop-color:#ADA17A"/>
			</linearGradient>
			<polygon class="st19" points="71,42.5 69.7,37.5 71,35.7 71,42.5 			"/>
		</g>
	</g>
	<g>
		
			<linearGradient id="SVGID_17_" gradientUnits="userSpaceOnUse" x1="1699.7712" y1="-864.692" x2="1703.8654" y2="-864.692" gradientTransform="matrix(1 0 0 1 -1633.0449 906.0679)">
			<stop  offset="0" style="stop-color:#ADA17A"/>
			<stop  offset="0.5" style="stop-color:#ECE6D6"/>
			<stop  offset="1" style="stop-color:#D1C385"/>
		</linearGradient>
		<path class="st20" d="M68.2,41.5c-0.1,0-0.1-0.2-0.1-0.2c0-0.1,0.1-0.2,0.1-0.3c0.2-0.4-0.3-0.7-0.7-0.7c-0.5-0.1-1,0.3-0.9,0.8
			c0,0.1,0.1,0.2,0.2,0.4c0.1,0.1,0.2,0.4,0.1,0.5c0.2,0,0.7-0.4,0.6-0.7c-0.1-0.2-0.5-0.3-0.5-0.5c0-0.3,0.5-0.3,0.7-0.2
			c0.6,0.2,0.1,0.7,0.1,1c0,0.1,0.1,0.2,0.2,0.3c0.1,0.2,0,0.2-0.1,0.3c-0.1,0.1-0.2,0.3-0.2,0.3s0.1,0.4,0,0.5
			c-0.1,0.1-0.3,0.3-0.3,0.3s0.2,0,0.4,0.2c0.2,0.2,0.4,0.4,0.4,0.4s0.1-0.2,0.1-0.4c0-0.1-0.3-0.2-0.3-0.3c0-0.1,0.3-0.5,0.5-0.6
			c0.1-0.1,0.1-0.4,0.2-0.4c0.1,0.1,0.3,0.2,0.4,0.4c0.2,0.4,0.1,0.5,0.1,0.5s0.3,0.2,0.3,0.4c0.1,0.2,0,0.4,0,0.4
			c0.1,0,0.5,0.1,0.6,0.1c0.1,0,0.3,0.2,0.4,0.2c0-0.1,0.1-0.4,0-0.6c-0.1-0.1-0.4-0.1-0.5-0.1c-0.1-0.1-0.3-1.3-0.3-1.4
			c-0.1-0.2-1-0.3-0.8-0.6c0.1-0.1,0.4-0.3,0.5-0.3c0,0,0.1,0.1,0.1,0.1c0.1,0,0.1,0.1,0.2,0.1c0.1,0,0.2,0.1,0.3,0.1
			c0,0,0.5-0.1,0.5-0.1c0-0.1,0-0.3,0.1-0.4c-0.1-0.1-0.2-0.1-0.2-0.2c-0.2,0.1-0.3,0.4-0.6,0.3c-0.2-0.1-0.1-0.2-0.3-0.3
			c0.1-0.3,0-0.3,0.2-0.5c0.1-0.1,0.2-0.2,0.2-0.3c0.1,0,0.2,0,0.3,0c0,0,0-0.2,0-0.2c0-0.1-0.1-0.2,0-0.3c-0.1-0.1-0.3,0-0.4,0.1
			c-0.1,0.1-0.1,0.2-0.2,0.3c0,0-0.3,0.3-0.3,0.3c-0.2-0.1-0.2-0.2-0.4-0.3c0,0,0-0.1,0-0.1c-0.2,0-0.3,0.1-0.5,0
			c-0.1-0.1-0.1-0.3,0.1-0.3c0.1,0,0.1,0.1,0.1,0.1c0,0,0.1,0,0.2,0c0.1,0,0.1-0.1,0.2-0.2c0-0.1,0-0.3,0-0.3
			c-0.1,0-0.3-0.1-0.4-0.1c0-0.1,0-0.1-0.1-0.1c-0.2-0.1-0.5-0.1-0.7,0c-0.2,0.1-0.4,0.1-0.4,0.3c0,0.1-0.1,0.3-0.1,0.4
			c0,0.3,0.3,0.6,0.5,0.8c0.1,0.1,0.3,0.2,0.4,0.3c0.2,0.2,0,0.4-0.1,0.6C68.4,41.2,68.2,41.5,68.2,41.5z"/>
		<path class="st13" d="M69,39.5c0.1,0,0.1-0.1,0.2-0.1c0.1,0,0.2,0,0.3,0c0.1,0,0.1-0.1,0.1-0.1c0,0,0.1,0.1,0.1,0.2
			c0,0.2-0.3,0-0.4,0C69.1,39.5,69,39.5,69,39.5"/>
	</g>
	<g>
		
			<linearGradient id="SVGID_18_" gradientUnits="userSpaceOnUse" x1="6035.9634" y1="-864.6933" x2="6040.0933" y2="-864.6933" gradientTransform="matrix(-1 0 0 1 6111.2422 906.0679)">
			<stop  offset="0" style="stop-color:#ADA17A"/>
			<stop  offset="0.5" style="stop-color:#ECE6D6"/>
			<stop  offset="1" style="stop-color:#D1C385"/>
		</linearGradient>
		<path class="st21" d="M73.6,41.1c-0.1-0.2-0.3-0.4-0.1-0.6c0.1-0.1,0.3-0.2,0.4-0.3c0.3-0.2,0.5-0.5,0.5-0.8c0-0.1,0-0.3-0.1-0.4
			c-0.1-0.2-0.3-0.2-0.4-0.3c-0.2-0.1-0.6-0.1-0.7,0c-0.1,0-0.1,0.1-0.1,0.1c-0.1,0-0.3,0.1-0.4,0.1c0,0,0,0.2,0,0.3
			c0,0.1,0,0.2,0.2,0.2c0,0,0.1,0,0.2,0c0.1,0,0.1-0.1,0.1-0.1c0.2,0,0.2,0.3,0.1,0.3c-0.2,0.1-0.3-0.1-0.5,0c0,0,0,0.1,0,0.1
			c-0.1,0.1-0.2,0.2-0.4,0.3c0,0-0.3-0.2-0.3-0.3c-0.1-0.1-0.1-0.2-0.2-0.3c-0.1-0.1-0.3-0.2-0.4-0.1c0.1,0.1,0,0.2,0,0.3
			c0,0,0,0.2,0,0.2c0.1,0.1,0.2,0,0.3,0c0.1,0,0.2,0.2,0.2,0.3c0.2,0.2,0.1,0.3,0.2,0.5c-0.1,0.1-0.1,0.2-0.3,0.3
			c-0.3,0.1-0.4-0.2-0.6-0.3c-0.1,0.1-0.2,0.1-0.2,0.2c0.1,0.1,0.1,0.3,0.1,0.4c0-0.1,0.5,0.1,0.5,0.1c0.1,0,0.2,0,0.3-0.1
			c0.1,0,0.1-0.1,0.2-0.1c0,0,0.1-0.1,0.1-0.1c0.1,0,0.4,0.2,0.5,0.3c0.2,0.3-0.7,0.4-0.8,0.6c0,0.1-0.2,1.3-0.3,1.4
			c-0.1,0.1-0.4,0.1-0.5,0.1c-0.1,0.1,0,0.4,0,0.6c0.1-0.1,0.3-0.2,0.4-0.2c0.1,0,0.4-0.1,0.6-0.1c0,0-0.1-0.2,0-0.4
			c0.1-0.1,0.3-0.4,0.3-0.4s-0.1-0.1,0.1-0.5c0.1-0.1,0.2-0.3,0.4-0.4c0.1-0.1,0.1,0.3,0.2,0.4c0.2,0.1,0.5,0.6,0.5,0.6
			c0,0.1-0.3,0.2-0.3,0.3c0,0.2,0.1,0.4,0.1,0.4s0.2-0.1,0.4-0.4c0.2-0.2,0.4-0.2,0.4-0.2s-0.2-0.2-0.3-0.3c-0.1-0.1,0-0.5,0-0.5
			s-0.1-0.2-0.2-0.3C74,42,73.9,42,74,41.8c0.1-0.1,0.2-0.2,0.2-0.3c0-0.4-0.4-0.9,0.1-1c0.2,0,0.6-0.1,0.7,0.2
			c0,0.2-0.4,0.4-0.5,0.5c-0.2,0.3,0.4,0.6,0.6,0.7c-0.1-0.2-0.1-0.4,0.1-0.5c0.1-0.1,0.2-0.2,0.2-0.4c0.1-0.5-0.5-0.9-0.9-0.8
			c-0.3,0-0.9,0.3-0.7,0.7c0.1,0.1,0.1,0.2,0.1,0.3c0,0.1,0,0.2-0.1,0.2C73.8,41.5,73.6,41.2,73.6,41.1z"/>
		<path class="st13" d="M73,39.5c-0.1,0-0.1-0.1-0.2-0.1c-0.1,0-0.2,0-0.3,0c-0.1,0-0.1-0.1-0.1-0.1c0,0-0.1,0.1-0.1,0.2
			c0,0.2,0.3,0,0.4,0C72.9,39.5,73,39.5,73,39.5"/>
	</g>
	<g>
		<linearGradient id="SVGID_19_" gradientUnits="userSpaceOnUse" x1="47.8459" y1="55.8454" x2="94.2424" y2="55.8454">
			<stop  offset="0" style="stop-color:#D1C385"/>
			<stop  offset="7.195120e-02" style="stop-color:#E9E1CF"/>
			<stop  offset="8.386826e-02" style="stop-color:#E8DFCB"/>
			<stop  offset="9.662811e-02" style="stop-color:#E4DBC0"/>
			<stop  offset="0.1098" style="stop-color:#DFD3AD"/>
			<stop  offset="0.1231" style="stop-color:#D6C893"/>
			<stop  offset="0.1293" style="stop-color:#D1C385"/>
			<stop  offset="0.1674" style="stop-color:#C6B880"/>
			<stop  offset="0.2304" style="stop-color:#A79C73"/>
			<stop  offset="0.25" style="stop-color:#9C926F"/>
			<stop  offset="0.339" style="stop-color:#D1C385"/>
			<stop  offset="0.4592" style="stop-color:#FFFFFF"/>
			<stop  offset="0.5585" style="stop-color:#D1C385"/>
			<stop  offset="0.6067" style="stop-color:#B9AC7B"/>
			<stop  offset="0.6744" style="stop-color:#9C926F"/>
			<stop  offset="0.7646" style="stop-color:#D1C385"/>
			<stop  offset="0.8338" style="stop-color:#FFFFFF"/>
			<stop  offset="1" style="stop-color:#D1C385"/>
		</linearGradient>
		<path class="st22" d="M71,58.5c15.3,0,24-4.7,24-4.7l-0.2-0.7c0,0-9.7,4.1-23.8,4.1c-14,0-23.8-4.1-23.8-4.1L47,53.8
			C47,53.8,55.7,58.5,71,58.5z"/>
	</g>
</g>
</svg>
