<svg height="512" viewBox="0 0 60 60" width="512" xmlns="http://www.w3.org/2000/svg"><g id="Page-1" fill="none" fill-rule="evenodd"><g id="036---Top"><path id="Path" d="m9.83 25.37-.03.03-1.66 2.13c-.64243079.8295783-1.81673506 1.0216578-2.69.44l-3.13-2.09c-.77234364-.5181207-1.08699865-1.4993476-.76-2.37l1.13-3z" fill="#0377bc"/><path id="Path" d="m47.3 16c-.24 1.45-.47 3.05-.67 4.8v.01" fill="#00bcd4"/><path id="Path" d="m13.37 20.81v-.01c-.2-1.75-.43-3.35-.67-4.8" fill="#00bcd4"/><path id="Path" d="m46.63 20.81c-1.2481079 11.7791829-1.1541724 23.6620209.28 35.42.0547357.4641512-.2193263.9043113-.66 1.06-1.67.55-6.36 1.71-16.25 1.71s-14.58-1.16-16.25-1.71c-.4406737-.1556887-.7147357-.5958488-.66-1.06 1.4341724-11.7579791 1.5281079-23.6408171.28-35.42l-3.54 4.56-7.14-4.86 3.9-10.41c.11979374-.33746013.30691314-.64705769.55-.91.25172926-.29885579.56125795-.5437576.91-.72l2.67-1.33 8.22-4.11c.055155.80122187.1891358 1.59505817.4 2.37 2.87 10.63 18.45 10.63 21.32 0 .2108642-.77494183.344845-1.56877813.4-2.37l8.22 4.11 2.67 1.33c.3487421.1762424.6582707.42114421.91.72.2430869.26294231.4302063.57253987.55.91l3.9 10.41-7.14 4.86z" fill="#02a9f4"/><path id="Path" d="m53.41 10.1c-.1197937-.33746013-.3069131-.64705769-.55-.91-.2517293-.29885579-.5612579-.5437576-.91-.72l-2.67-1.33-8.22-4.11c-.036183.47182847-.0989494.9412406-.188 1.406l5.408 2.7 2.67 1.33c.3487421.1762424.6582707.42114421.91.72.2430869.26294231.4302063.57253987.55.91l3.9 10.41-5.177 3.524 1.037 1.34 7.14-4.86z" fill="#0377bc"/><path id="Path" d="m46.28 24.223c-.4341848-.5605844-1.1676031-.7977178-1.8477945-.5974405s-1.1680821.7970162-1.2292055 1.5034405c-.7540199 10.3655578-.5172804 20.7794151.707 31.1.0547357.4641512-.2193263.9043113-.66 1.06-1.583.521-5.886 1.589-14.75 1.7.489.006.983.011 1.5.011 9.89 0 14.58-1.16 16.25-1.71.4406737-.1556887.7147357-.5958488.66-1.06-1.2667773-10.6219948-1.4778085-21.3433834-.63-32.007z" fill="#0377bc"/><path id="Path" d="m41.06 3.03c-.055155.80122187-.1891358 1.59505817-.4 2.37-2.87 10.63-18.45 10.63-21.32 0-.2108642-.77494183-.344845-1.56877813-.4-2.37l4.06-2.03h.01c-.1760931 1.11744853-.1113128 2.25962823.19 3.35.8078537 3.06169138 3.636178 5.14966019 6.8 5.02 3.163822.12966019 5.9921463-1.95830862 6.8-5.02.3013128-1.09037177.3660931-2.23255147.19-3.35h.01z" fill="#0377bc"/><path id="Path" d="m36.8 4.35c-.8078537 3.06169138-3.636178 5.14966019-6.8 5.02-3.163822.12966019-5.9921463-1.95830862-6.8-5.02-.3013128-1.09037177-.3660931-2.23255147-.19-3.35h13.98c.1760931 1.11744853.1113128 2.25962823-.19 3.35z" fill="#283593"/><path id="Path" d="m57.68 25.88-3.13 2.09c-.8732649.5816578-2.0475692.3895783-2.69-.44l-1.66-2.13-.03-.03 7.14-4.86 1.13 3c.3269987.8706524.0123436 1.8518793-.76 2.37z" fill="#0377bc"/><circle id="Oval" cx="39" cy="21" fill="#f5f5f5" r="3"/><g fill="#000"><path id="Shape" d="m54.354 9.767c-.1597462-.44969908-.4064337-.86356314-.726-1.218-.3392031-.4044225-.7569719-.73577981-1.228-.974l-14.953-7.47c-.0364755-.01077041-.0735357-.01945118-.111-.026-.076103-.02817328-.1553525-.04697824-.236-.056-.035-.003-.066-.023-.1-.023h-14c-.034 0-.064.02-.1.023-.0817203.00844886-.1620325.02726679-.239.056-.0371368.00654098-.0738647.01522211-.11.026l-14.958 7.476c-.45481326.22825835-.85940739.54513374-1.19.932-.32909752.35848318-.58399442.77855326-.75 1.236l-5.029 13.407c-.49322736 1.3061358-.02022277 2.7798705 1.141 3.555l3.135 2.094c1.31041732.8605898 3.06165573.5737153 4.029-.66l1.671-2.152c.017-.021.038-.038.053-.06 0-.006 0-.012.007-.017l1.963-2.522c.9428117 10.899093.7652157 21.8661487-.53 32.729-.0997828.931972.4565491 1.8095834 1.342 2.117 1.999.66 6.805 1.76 16.565 1.76s14.566-1.1 16.572-1.763c.8798897-.3125012 1.4295994-1.188808 1.328-2.117-1.295249-10.8618447-1.4728452-21.8279092-.53-32.726l1.962 2.521c0 .005 0 .012.008.018.0187877.02339.0388165.0457555.06.067l1.668 2.144c.9680195 1.2381609 2.7242368 1.526151 4.037.662l3.134-2.093c1.1577568-.7754371 1.6291593-2.2459808 1.138-3.55zm-24.354-7.767h6.08c.0227285.7047087-.0601908 1.40884864-.246 2.089-.6993945 2.61903774-3.1257785 4.39952285-5.834 4.281-2.7090511.11839839-5.1359769-1.66301092-5.835-4.283-.1850525-.67960143-.2676289-1.38301814-.245-2.087zm-7.766 2.611c.9153035 3.50502525 4.1462169 5.9009602 7.766 5.759 3.6189517.1420831 6.8493228-2.25292606 7.765-5.757.1739618-.6395088.2779054-1.2960301.31-1.958l1.911.955c-.0597707.51436311-.1553358 1.02393231-.286 1.525-1.1697662 4.36599428-5.1816517 7.3596054-9.7 7.238-4.5183483.1216054-8.5302338-2.87200572-9.7-7.238-.1316756-.5009951-.2282433-1.01056519-.289-1.525l1.911-.955c.0331502.66134442.137759 1.31716087.312 1.956zm-16.228 22.528-3.126-2.088c-.39079744-.2578595-.55036428-.7523505-.384-1.19l.68-1.811 5.2 3.543-1.028 1.326c-.31933341.4157387-.90664079.5120186-1.342.22zm23.994 30.861c-9.834 0-14.422-1.161-15.916-1.66 1.4347451-11.8362784 1.5283381-23.7967181.279-35.654-.186-1.637-.415-3.269-.676-4.85-.0905747-.5448289-.6056711-.9130747-1.1505-.8225s-.9130747.6056711-.8225 1.1505c.235 1.42.438 2.885.613 4.359l-2.716 3.489-5.711-3.889 3.635-9.69c.08252102-.223375.20978757-.427546.374-.6.16376401-.19390812.36471882-.35303984.591-.468l9.63-4.814c.067.372.143.742.241 1.106 1.3787691 5.2554607 6.1977971 8.8673489 11.629 8.716 5.4312029.1513489 10.2502309-3.4605393 11.629-8.716.1-.364.174-.734.241-1.106l9.623 4.809c.2430182.12372028.4578445.29633033.631.507.1550997.16889.2741855.3675931.35.584l3.626 9.672-5.713 3.888-2.716-3.489c.174-1.472.378-2.937.613-4.358.0905747-.5448289-.2776711-1.0599253-.8225-1.1505s-1.0599253.2776711-1.1505.8225c-.261 1.581-.49 3.213-.676 4.847-1.2526526 11.8585781-1.1520053 23.8211775.3 35.657-1.513.499-6.101 1.66-15.935 1.66zm27.124-32.952-3.124 2.087c-.4378338.2946479-1.0292703.198337-1.351-.22l-1.029-1.322 5.2-3.543.681 1.814c.1645344.4343271.0083715.9247697-.377 1.184z" fill-rule="nonzero"/><path id="Path" d="m24 18h-5c-.5522847 0-1 .4477153-1 1s.4477153 1 1 1h5c.5522847 0 1-.4477153 1-1s-.4477153-1-1-1z"/><path id="Path" d="m24 22h-5c-.5522847 0-1 .4477153-1 1s.4477153 1 1 1h5c.5522847 0 1-.4477153 1-1s-.4477153-1-1-1z"/><path id="Shape" d="m39 17c-2.209139 0-4 1.790861-4 4s1.790861 4 4 4 4-1.790861 4-4-1.790861-4-4-4zm0 6c-1.1045695 0-2-.8954305-2-2s.8954305-2 2-2 2 .8954305 2 2-.8954305 2-2 2z" fill-rule="nonzero"/><path id="Path" d="m20 53h-3c-.5522847 0-1 .4477153-1 1s.4477153 1 1 1h3c.5522847 0 1-.4477153 1-1s-.4477153-1-1-1z"/></g></g></g></svg>