<?xml version="1.0" encoding="utf-8"?>
<!-- Generator: Adobe Illustrator 24.1.0, SVG Export Plug-In . SVG Version: 6.00 Build 0)  -->
<svg version="1.1" xmlns="http://www.w3.org/2000/svg" xmlns:xlink="http://www.w3.org/1999/xlink" x="0px" y="0px"
	 viewBox="0 0 1642.7 790" style="enable-background:new 0 0 1642.7 790;" xml:space="preserve">
<style type="text/css">
	.st0{fill:#005326;}
	.st1{clip-path:url(#SVGID_2_);}
	.st2{opacity:5.000000e-02;}
	.st3{fill:none;stroke:#FFCD00;stroke-miterlimit:10;}
	.st4{clip-path:url(#SVGID_4_);}
	.st5{fill:none;stroke:#FFCD00;stroke-width:0.25;stroke-miterlimit:10;}
	.st6{opacity:0.15;clip-path:url(#SVGID_6_);}
	.st7{fill:url(#SVGID_7_);}
	.st8{fill:url(#SVGID_8_);}
	.st9{fill:url(#SVGID_9_);}
	.st10{fill:#1D1D1C;}
	.st11{fill:url(#SVGID_10_);}
	.st12{fill:url(#SVGID_11_);}
	.st13{fill:url(#SVGID_12_);}
	.st14{fill:url(#SVGID_13_);}
	.st15{fill:url(#SVGID_14_);}
	.st16{fill:url(#SVGID_15_);}
	.st17{fill:url(#SVGID_16_);}
	.st18{fill:#D1C385;}
	.st19{fill:url(#SVGID_17_);}
	.st20{fill:url(#SVGID_18_);}
	.st21{fill:url(#SVGID_19_);}
	.st22{fill:url(#SVGID_20_);}
	.st23{fill:url(#SVGID_21_);}
	.st24{fill:url(#SVGID_22_);}
	.st25{fill:url(#SVGID_23_);}
	.st26{fill:url(#SVGID_24_);}
	.st27{fill:url(#SVGID_25_);}
	.st28{fill:url(#SVGID_26_);}
	.st29{fill:url(#SVGID_27_);}
	.st30{fill:url(#SVGID_28_);}
	.st31{fill:url(#SVGID_29_);}
	.st32{fill:url(#SVGID_30_);}
	.st33{fill:url(#SVGID_31_);}
	.st34{fill:url(#SVGID_32_);}
	.st35{fill:url(#SVGID_33_);}
	.st36{fill:url(#SVGID_34_);}
	.st37{fill:url(#SVGID_35_);}
	.st38{fill:url(#SVGID_36_);}
	.st39{fill:url(#SVGID_37_);}
	.st40{fill:url(#SVGID_38_);}
	.st41{fill:url(#SVGID_39_);}
	.st42{fill:url(#SVGID_40_);}
	.st43{fill:url(#SVGID_41_);}
	.st44{fill:url(#SVGID_42_);}
	.st45{fill:url(#SVGID_43_);}
	.st46{fill:url(#SVGID_44_);}
	.st47{fill:url(#SVGID_45_);}
	.st48{fill:url(#SVGID_46_);}
	.st49{fill:url(#SVGID_47_);}
	.st50{fill:url(#SVGID_48_);}
	.st51{fill:url(#SVGID_49_);}
	.st52{fill:url(#SVGID_50_);}
	.st53{fill:url(#SVGID_51_);}
	.st54{fill:url(#SVGID_52_);}
	.st55{fill:url(#SVGID_53_);}
	.st56{fill:url(#SVGID_54_);}
	.st57{fill:url(#SVGID_55_);}
	.st58{fill:url(#SVGID_56_);}
	.st59{fill:url(#SVGID_57_);}
	.st60{fill:url(#SVGID_58_);}
	.st61{fill:url(#SVGID_59_);}
	.st62{fill:url(#SVGID_60_);}
	.st63{fill:url(#SVGID_61_);}
	.st64{fill:url(#SVGID_62_);}
	.st65{fill:url(#SVGID_63_);}
	.st66{opacity:0.32;}
	.st67{opacity:0.2;}
</style>
<g id="Base">
</g>
<g id="Guías">
</g>
<g id="Elementos">
</g>
<g id="Fotos">
	<g>
		<linearGradient id="SVGID_2_" gradientUnits="userSpaceOnUse" x1="1638.103" y1="498.6342" x2="13.9705" y2="442.2021">
			<stop  offset="0" style="stop-color:#FFCD00"/>
			<stop  offset="0.2653" style="stop-color:#F6CA09"/>
			<stop  offset="0.4907" style="stop-color:#FFCD00"/>
			<stop  offset="0.5995" style="stop-color:#FFF4D3"/>
			<stop  offset="0.7053" style="stop-color:#FFCD00"/>
		</linearGradient>
		<path style="fill:url(#SVGID_2_);" d="M53.2,478.4l32.7-94.2c0,0-53.6-78.1,1.4-141.9c31.8-30.1,67.7-32.4,133-16.9
			c60.6,14.5,310,94.4,601.2,94c290.2-0.5,540.6-79.5,601.2-94c65.3-15.6,101.2-13.2,133,16.9c54.9,63.8,1.3,141.9,1.3,141.9
			l32.7,94.2l44.9,127c0,0-333,141.4-813,141c-478.6-0.4-813-141-813-141L53.2,478.4z"/>
		<g>
			<linearGradient id="SVGID_4_" gradientUnits="userSpaceOnUse" x1="18.0087" y1="339.5004" x2="1624.3926" y2="339.5004">
				<stop  offset="0" style="stop-color:#D1C385"/>
				<stop  offset="5.633800e-02" style="stop-color:#E6E0D3"/>
				<stop  offset="0.1521" style="stop-color:#9C926F"/>
				<stop  offset="0.2479" style="stop-color:#9C926F"/>
				<stop  offset="0.2634" style="stop-color:#A49972"/>
				<stop  offset="0.3577" style="stop-color:#D1C385"/>
				<stop  offset="0.4592" style="stop-color:#FFFFFF"/>
				<stop  offset="0.569" style="stop-color:#D1C385"/>
				<stop  offset="0.6017" style="stop-color:#CABC82"/>
				<stop  offset="0.6438" style="stop-color:#B6AA7A"/>
				<stop  offset="0.6841" style="stop-color:#9C926F"/>
				<stop  offset="0.7067" style="stop-color:#A69B73"/>
				<stop  offset="0.7423" style="stop-color:#C1B47E"/>
				<stop  offset="0.7585" style="stop-color:#D1C385"/>
				<stop  offset="0.8427" style="stop-color:#FFFFFF"/>
				<stop  offset="1" style="stop-color:#D1C385"/>
			</linearGradient>
			<path style="fill:url(#SVGID_4_);" d="M821.3,319.4c290.2-0.5,540.6-79.5,601.2-94c65.3-15.6,101.2-13.2,133,16.9
				c54.9,63.8,1.3,141.9,1.3,141.9l37,107.2c0,0,79.8-144.9-18.8-258c-36.3-41.5-86.9-51.3-142.6-47.2
				c-71.9,5.3-284.4,89.1-611.1,88.6c-325.3-0.4-539.2-83.4-611.1-88.6c-55.7-4.1-106.3,5.8-142.6,47.2
				C-31,346.5,47.9,493.6,47.9,493.6l37.9-109.5c0,0-53.6-78.1,1.4-141.9c31.8-30.1,67.7-32.4,133-16.9
				C280.8,239.9,530.2,319.8,821.3,319.4z"/>
		</g>
		<linearGradient id="SVGID_6_" gradientUnits="userSpaceOnUse" x1="1638.103" y1="498.6342" x2="13.9705" y2="442.2021">
			<stop  offset="0.4907" style="stop-color:#F6CA09"/>
			<stop  offset="0.5995" style="stop-color:#F7EACD"/>
			<stop  offset="0.7053" style="stop-color:#F6CA09"/>
		</linearGradient>
		<path style="fill:url(#SVGID_6_);" d="M53.2,478.4l32.7-94.2c0,0-53.6-78.1,1.4-141.9c31.8-30.1,67.7-32.4,133-16.9
			c60.6,14.5,310,94.4,601.2,94c290.2-0.5,540.6-79.5,601.2-94c65.3-15.6,101.2-13.2,133,16.9c54.9,63.8,1.3,141.9,1.3,141.9
			l32.7,94.2l44.9,127c0,0-333,141.4-813,141c-478.6-0.4-813-141-813-141L53.2,478.4z"/>
		<g>
			<g>
				<path class="st10" d="M1470.6,318.1c1.7,6,1,11.7-2,17.1c-3,5.4-7.5,8.9-13.4,10.6c-6,1.7-11.6,1-17.1-2
					c-5.4-3.1-8.9-7.5-10.6-13.5c-1.7-5.9-1-11.6,2-17c3-5.4,7.5-8.9,13.5-10.6c5.9-1.7,11.6-1,17,2
					C1465.4,307.6,1468.9,312.2,1470.6,318.1z M1467.7,318.9c-1.5-5.2-4.5-9.1-9.2-11.8c-4.7-2.6-9.6-3.2-14.7-1.7
					c-5.2,1.4-9,4.5-11.7,9.2c-2.6,4.7-3.2,9.6-1.8,14.8c1.5,5.2,4.5,9.1,9.3,11.8c4.7,2.6,9.6,3.2,14.7,1.8c5.2-1.5,9-4.6,11.6-9.2
					C1468.6,329.1,1469.2,324.1,1467.7,318.9z M1464.5,331.7l-5.7,1.5l-9.6-6.8l-3,0.8l2.5,8.9l-4.1,1.2l-6.4-22.8l7-2
					c1.5-0.4,2.8-0.7,3.7-0.8c0.9-0.1,2-0.1,3,0.2c1.2,0.3,2.1,0.7,2.8,1.5c0.7,0.7,1.2,1.6,1.6,2.9c0.4,1.7,0.4,3.2-0.3,4.5
					c-0.6,1.3-1.6,2.5-2.9,3.5L1464.5,331.7z M1451.8,317.7c-0.1-0.6-0.4-1.1-0.7-1.5c-0.4-0.4-0.8-0.7-1.4-0.8
					c-0.5-0.1-1-0.2-1.5-0.2c-0.6,0.1-1.2,0.2-2.1,0.4l-2.8,0.8l2.2,7.7l2.4-0.7c0.9-0.2,1.5-0.5,2.2-0.8c0.6-0.3,1.1-0.7,1.5-1.3
					c0.3-0.5,0.5-1,0.5-1.6C1452.1,319.1,1452,318.5,1451.8,317.7z"/>
			</g>
			<g>
				
					<linearGradient id="SVGID_7_" gradientUnits="userSpaceOnUse" x1="409.6154" y1="535.2777" x2="603.7198" y2="556.5665" gradientTransform="matrix(1 -6.800000e-03 6.800000e-03 1 21.5229 -20.2394)">
					<stop  offset="2.747200e-02" style="stop-color:#D0D0D0"/>
					<stop  offset="0.7303" style="stop-color:#FFFFFF"/>
					<stop  offset="1" style="stop-color:#D0D0D0"/>
				</linearGradient>
				<path class="st7" d="M595.2,480.1c7-57.1-42.7-79.5-85.4-86.4c-2.4-0.5-3.7-0.8-6.1-1.2c-15-3.2-53.6-12.1-66.9-15.5
					c-2.1,9.3-2.2,10.9-4.3,20.2c8.8,5.1,14.9,13,11.6,28.5c-13.9,66-29,137.2-42.9,203.3c22.6,5.4,30.4,7,53.1,11.7
					c-0.2-1.4,14.1-77.6,20.7-112.5c6.7,5.3,16.9,15.3,24,29.2c14.8,40.5,37.6,97,37.2,97.9c24.5,4.1,40.3,6.2,64.9,9.5
					c0.4-1.2-37.1-83.3-51.6-125C565.9,531,590.7,516.4,595.2,480.1z M547.9,473.8c-4.8,31.1-31.5,43.2-53.7,38.7
					c-4.8-1-10.7-2.2-15.5-3.1c6.5-34.6,8.7-46.7,15.2-81.3c5.8,1.2,12.1,2.5,17.9,3.7C537.2,436.8,552.7,442.5,547.9,473.8z"/>
				
					<linearGradient id="SVGID_8_" gradientUnits="userSpaceOnUse" x1="1978.2349" y1="-402.077" x2="1704.2555" y2="-442.098" gradientTransform="matrix(1 -6.800000e-03 6.800000e-03 1 -1605.3561 896.8532)">
					<stop  offset="2.747200e-02" style="stop-color:#D0D0D0"/>
					<stop  offset="0.7303" style="stop-color:#FFFFFF"/>
					<stop  offset="1" style="stop-color:#D0D0D0"/>
				</linearGradient>
				<path class="st8" d="M286.6,567.4c-54.1-16.6-48.3-81.3-34.9-125.3c8.3-27.5,25.7-85.2,70.2-64.7c22.6,10.4,24.9,25.9,22.8,45.7
					c21.8,6.5,33.2,10,55.1,15.8c9-59.2-21.8-75.4-66.5-90.9c-64.2-22.3-114.1,24.1-135,84.8c-23.5,68.3-2.3,140.8,68.8,161.4
					c27.9,8.1,56.5,12,84.9,9.3c3.9-16.5,5.8-24.7,9.7-41.2C335.4,572,317.3,576.8,286.6,567.4z"/>
				
					<linearGradient id="SVGID_9_" gradientUnits="userSpaceOnUse" x1="1097.5963" y1="558.3006" x2="1350.6571" y2="518.6053" gradientTransform="matrix(1 -6.800000e-03 6.800000e-03 1 21.5229 -20.2394)">
					<stop  offset="2.747200e-02" style="stop-color:#D0D0D0"/>
					<stop  offset="0.7303" style="stop-color:#FFFFFF"/>
					<stop  offset="1" style="stop-color:#D0D0D0"/>
				</linearGradient>
				<path class="st9" d="M1166,398.7c-16,87.7-34.7,174.2-56.4,260.5c16.2-2.2,20.6-3.4,36.8-6c14.6-61.1,27.1-122.6,38-184.6
					c20.4,34.7,35,51.9,56.6,86c-18.3,4-27.4,5.8-45.9,9.3c-2,10.7-3.1,16-5.2,26.7c34.1-6.3,64.2-14.8,88.7,21.8
					c3.7,5.6,5,7.4,8.7,12.9c22.2-5.2,39.2-9.1,61.3-14.9c-49.4-72.1-95.7-144.9-140.2-220.5C1193.8,393,1180.7,396,1166,398.7z"/>
				
					<linearGradient id="SVGID_10_" gradientUnits="userSpaceOnUse" x1="2370.6479" y1="-329.2314" x2="2219.9792" y2="-341.0515" gradientTransform="matrix(1 -6.800000e-03 6.800000e-03 1 -1605.3561 896.8532)">
					<stop  offset="2.747200e-02" style="stop-color:#D0D0D0"/>
					<stop  offset="0.7303" style="stop-color:#FFFFFF"/>
					<stop  offset="1" style="stop-color:#D0D0D0"/>
				</linearGradient>
				<path class="st11" d="M639.3,433.7c0,0,19.3,6.2,16.7,32.7c-6.5,66.1-13.2,135.8-19.8,201.9c22.9,2.6,31.7,3.5,54.7,5.3
					c5.9-82.6,12-168.8,18-251.4c-33.5-2.7-34.4-2.3-67.8-6.7C640.1,424.2,640.3,425,639.3,433.7z"/>
				
					<linearGradient id="SVGID_11_" gradientUnits="userSpaceOnUse" x1="1309.1865" y1="512.8824" x2="1487.5654" y2="466.4547" gradientTransform="matrix(1 -6.800000e-03 6.800000e-03 1 21.5229 -20.2394)">
					<stop  offset="2.747200e-02" style="stop-color:#D0D0D0"/>
					<stop  offset="0.7303" style="stop-color:#FFFFFF"/>
					<stop  offset="1" style="stop-color:#D0D0D0"/>
				</linearGradient>
				<path class="st12" d="M1522.8,498.1c-10.2,3.9-9,3-19.1,6.8c0.1,16.2-12.6,27.3-34.8,34.9c-12.2,4.3-42.5,14.6-45.8,14.4
					c-2.3-3.2-41.2-143.4-59-206.8c-32.5,10.4-35.4,10.6-68.3,19.3c2,8.6,1.9,8.2,3.9,16.7c0,0,20.3,0.7,26.8,26.5
					c16.2,64.2,32,127,48.1,191.2c54.8-15.6,110.2-34.4,163.6-54.9C1530.5,521.4,1530.6,523,1522.8,498.1z"/>
				
					<linearGradient id="SVGID_12_" gradientUnits="userSpaceOnUse" x1="2551.4783" y1="-319.9938" x2="2253.2168" y2="-337.8862" gradientTransform="matrix(1 -6.800000e-03 6.800000e-03 1 -1605.3561 896.8532)">
					<stop  offset="2.747200e-02" style="stop-color:#D0D0D0"/>
					<stop  offset="0.7303" style="stop-color:#FFFFFF"/>
					<stop  offset="1" style="stop-color:#D0D0D0"/>
				</linearGradient>
				<path class="st13" d="M800.5,480.6c-2.2-14.6,7.9-24,22.1-23.8c24.9,0.3,53,16.3,75.1,26.4c-0.4-17.7-0.8-35.3-1.3-53
					c-20.3-3.5-37.9-5.9-58.5-6c-48.6-0.3-83.1,21.4-84.7,65c-2.9,78.3,111.9,74.7,121.3,126.5c3.8,20.6-26.2,33.2-47,32.9
					c-29-0.3-54.1-14.5-77.3-28.9c-0.9,19-1.3,32-2.2,50.9c24,6.7,43.3,11.4,68.3,12.1c45.3,1.2,110.7-22.4,108.4-80.8
					C922,526.9,808.4,533.3,800.5,480.6z"/>
				
					<linearGradient id="SVGID_13_" gradientUnits="userSpaceOnUse" x1="884.8141" y1="554.9161" x2="1093.8591" y2="569.1696" gradientTransform="matrix(1 -6.800000e-03 6.800000e-03 1 21.5229 -20.2394)">
					<stop  offset="2.747200e-02" style="stop-color:#D0D0D0"/>
					<stop  offset="0.7303" style="stop-color:#FFFFFF"/>
					<stop  offset="1" style="stop-color:#D0D0D0"/>
				</linearGradient>
				<path class="st14" d="M1123.9,406.1c-3.7,0.6-1.5,0.3-5.2,0.9c-27.1,4.3-40.6,6.2-67.8,9.4c-47.7,5.6-71.7,7.6-119.7,9.8
					c0.4,26.2,0.7,27,1,53.2c7.1-0.3,10.3-0.6,16.6-1c3.7-19.5,6.7-21.3,46.6-23.7c5.3,72.1,10.5,143.8,15.8,215.9
					c23-1.9,33.5-3,56.4-5.6c-7.2-71.9-14.5-143.8-21.7-215.7c1.7-0.2,3.6-0.3,5.4-0.5c6.9-0.8,10.5-1.3,17.4-2.1
					c15.3-1.5,32.8-0.2,45.6,4.5C1118,434.5,1120.5,422.7,1123.9,406.1z"/>
			</g>
			<g>
				<path class="st18" d="M496.4,379.8c-2.4-0.5-3.6-0.7-6-1.2c-14.9-3.1-53.6-12-66.7-15.4l-4.1-1l-0.9,4.1
					c-2.1,9.4-2.2,10.9-4.3,20.2l-0.7,2.9l2.6,1.5c6.4,3.9,10.3,8.1,10.5,16.9c0,2.1-0.2,4.5-0.8,7.2c-13.9,66-27.8,132-41.8,198
					l-0.8,3.9l3.9,0.9c22.7,5.4,61.2,13.5,61.2,13.5s12.1-68.8,18.7-104c4.4,5,9.2,12.2,14.1,21.9c7.2,19.7,15.9,42.5,23,60.6
					c3.5,9,6.5,16.9,8.7,22.5c1.1,2.8,3.2,8.7,3.2,8.8l1.1,2.9c24.4,4.1,70.8,10.8,70.8,10.8s-36.3-82.1-49.3-118.3
					c23.2-10.2,47.5-29.6,52-65.9c0.5-3.7,0.6-7.3,0.6-10.7C590.6,406.8,536.8,386.2,496.4,379.8z M530.7,452.6
					c0,3.2-0.3,6.7-0.9,10.7l0,0c-3.9,24.8-22.1,35.9-40.3,36.1c-2.9,0-5.8-0.2-8.6-0.8c-3.3-0.6-5.5-1.1-8.1-1.6
					c5.7-30.7,8.9-47.8,14.7-78.4c3.5,0.7,6.2,1.3,10.4,2.1C519.5,425.4,530.2,432,530.7,452.6z M495.8,383.9L495.8,383.9
					L495.8,383.9L495.8,383.9z"/>
				<path class="st18" d="M307.5,555.3c-9,0.1-18.7-1.4-30.2-4.9c-30.6-9.5-40.3-34.1-40.7-62.9c-0.1-18.7,4.1-38.7,9.7-55.7
					c7.9-25.1,25.7-66,53-65.4c3.4,0,7,0.5,11,1.8c17.4,5.9,20.4,14.5,20.9,28.1c0,3.5-0.2,7.2-0.7,11.1l-0.4,3.4l3.3,1
					c21.8,6.5,32.9,9.6,54.9,15.4l4.7,1.2l0.5-4.9c0.3-4.2,0.5-8.1,0.5-11.9c-0.1-44.1-28.1-66.5-69.7-80.6
					c-11.7-4.1-23.2-6-34.1-5.9c-50.8,0.4-88.7,42.4-106.1,93.3c-6.3,18.4-9.5,37.2-9.4,55.2c0.2,50.4,26.7,95.9,80.9,111.5
					c22.7,6.5,46.6,10.4,70.3,10.3c5.8-0.1,11.6-0.4,17.3-0.9l2.9-0.3l0.7-2.9c3.9-16.5,5.8-24.7,9.7-41.2l1.7-7.3l-7.1,2.6
					C334.9,551.3,321.9,555.2,307.5,555.3z"/>
				<path class="st18" d="M1192.1,379.5l-1.5-2.5l-2.9,0.6c-14.6,3.1-21.8,4.5-36.5,7.3l-2.8,0.5l-0.5,2.8
					c-15.9,87.6-34.6,174-56.3,260.2l-1.5,5.9l6-0.8c16.2-2.2,24.4-3.4,40.6-5.9l2.7-0.4l0.6-2.7c13.8-57.6,26-115.6,36.5-174
					c15.9,27.1,26.2,43.9,43.8,71.7c-14.7,3.2-23.7,5-40,8.1l-2.8,0.5l-0.5,2.8c-2,10.7-3,16-5.1,26.7l-1.2,5.9l5.9-1.1
					c14.1-2.6,27.2-5.5,39-5.5c17.2,0,31.5,4.9,45.4,25.5c3.7,5.6,5.6,8.4,9.3,13.9l1.6,2.3l2.8-0.6c22.2-5.2,33.3-8,55.4-13.8
					l5.6-1.5l-3.3-4.8C1283.2,528.4,1236.6,455.1,1192.1,379.5z"/>
				<path class="st18" d="M627.6,401.6l-4.1-0.6l-0.5,4.2c-1,8.8-0.8,9.6-1.8,18.2l-0.4,3.3l3.3,1c0,0,0.6,0.2,1.9,0.9
					c3.9,2.3,12,7.9,12.2,22.9c0,1.5,0,3-0.2,4.7c-6.5,66.1-13,132.2-19.5,198.3l-0.4,4l4,0.5c23,2.5,34.5,3.7,57.5,5.5l4.2,0.3
					l0.2-4.1c5.9-82.6,11.8-165.2,17.7-247.9l0.3-4.1l-4-0.3C664.2,405.8,661,406,627.6,401.6z"/>
				<path class="st18" d="M1527,537.2c-7.7-24.9-7.9-24.7-15.7-49.5l-1.3-4.2l-4,1.5c-9.9,3.8-7.3,2.3-17.8,6.2v0
					c-0.5,0.2-1.1,0.5-1.5,0.9c-0.7,0.8-1.2,1.8-1.2,2.9c0.1,13.6-10.3,23.3-32.1,31c-6,2.1-16.4,5.7-25.9,8.8
					c-6.2,2.1-12.5,4-15.9,4.9c-6.7-20.7-41.4-145-57.7-203.2l-1.2-4.1l-4,1.3c-32.5,10.4-35.1,10.5-68.1,19.2l-3.8,1l0.9,3.9
					c2,8.6,1.9,8.2,3.9,16.7l0.7,3.1l3.1,0.1c0,0,4,0.1,9.1,3c5.1,3,10.9,8.5,13.9,20.4c16.1,64.2,32.3,128.4,48.5,192.6l1,4.1
					l4.1-1.1c54.9-15.7,109.1-33.9,162.5-54.4l3.6-1.4L1527,537.2z"/>
				<path class="st18" d="M857.7,520.1c-30.2-14.4-58.6-26.3-61.6-49.3c-0.1-0.8-0.2-1.7-0.2-2.5c-0.1-10.1,9.7-18.3,21-18.3l0.1,0
					h0.3c23.9,0.2,44.1,8.9,66.2,19.1l6,2.7l-0.2-6.6c-0.5-17.6-0.7-26.5-1.2-44.2l-0.1-3.4l-3.3-0.5c-20.3-3.5-39.8-6.8-61-6.9
					c-0.7,0-1.4,0-2.1,0c-48.5,0-85.2,23.4-86.7,69c0,1.2,0,2.4,0,3.6c0.3,39.9,30.5,59.1,59.7,74.1c29.6,15,58.2,27.4,61.8,49.7
					c0.2,0.9,0.2,1.8,0.2,2.6c0.1,6.9-5.1,13.2-13.7,18c-8.4,4.7-19.6,7.4-28.7,7.5c-0.4,0-0.7,0-1,0c-27.5-0.2-51.9-13.9-75-28.2
					l-5.9-3.7l-0.3,7c-0.9,19-1.4,28.5-2.2,47.4l-0.2,3.2l3.2,0.9c24.1,6.7,48.6,12.6,74.1,13.2c1.7,0,3.3,0,4.9,0
					c45-0.4,108.2-20.9,108.2-79.4c0-0.8,0-1.7-0.1-2.5C918.6,552.7,887.3,534.4,857.7,520.1z"/>
				<path class="st18" d="M1055.3,440.2c7.5-0.7,16.7-1.5,25.5-1.5c8.8,0,17.3,0.6,23.1,2.3l4.3,1.3l0.9-4.3
					c3.6-16.5,5.3-24.9,8.7-41.5l1.2-5.8l-5.8,0.9c-3.6,0.6-5.4,0.9-9,1.5c-27.1,4.3-40.5,6.2-67.6,9.4
					c-47.7,5.6-71.5,7.6-119.4,9.8l-4,0.2l0,4c0.4,26.3,0.7,25.6,1,51.8l0,4.2l4.2-0.2c7.2-0.3,13.8-0.7,20.1-1.1l3-0.2l0.7-2.9
					c2.1-8.2,4.9-12.1,10.4-15c5.1-2.7,13.1-4,24.8-4.8c5.2,70.8,10.4,141.5,15.6,212.2l0.3,4.1l4.1-0.3c23-1.9,34.6-3.1,57.5-5.7
					l4.1-0.5l-0.4-4c-7-70.6-14.1-141.1-21.2-211.7c0.1,0,0.2-0.1,0.3-0.1C1044.8,441.6,1048.4,441.1,1055.3,440.2z"/>
			</g>
			<g>
				<path class="st10" d="M586.6,470.2c7-57.1-48.2-79.5-90.8-86.4c-2.5-0.5-3.7-0.7-6.1-1.3c-15.1-3.1-53.6-12-66.9-15.4
					c-2.1,9.3-2.2,10.9-4.3,20.2c8.8,5.1,14.9,13,11.7,28.5c-13.9,66-27.9,132-41.8,198c22.6,5.4,34,8,56.7,12.7
					c-0.2-1.4,13-72.3,19.6-107.3c6.7,5.2,13.3,14.4,20.4,28.2c14.8,40.5,35.7,92.2,35.4,93.2c24.5,4.1,36.8,5.9,61.4,9.2
					c0.4-1.2-33.5-73.9-48.1-115.6C557.1,524.7,582.1,506.5,586.6,470.2z M533.8,464c-4.8,31.1-31.5,43.2-53.7,38.7
					c-4.9-1-7.3-1.5-12.1-2.5c6.5-34.6,9.7-51.9,16.2-86.5c5.8,1.2,8.7,1.8,14.5,3C524.1,421.7,538.6,432.6,533.8,464z"/>
				<path class="st10" d="M276.1,554.4c-54-16.6-48-80-33.7-123.8c9.2-28.1,29.7-78.7,69.1-66.2c23.7,7.6,25.1,23.8,23,43.6
					c21.8,6.5,32.8,9.6,54.8,15.4c4.6-50-21.7-72.8-66.4-88.3c-64.2-22.2-114.1,24.1-134.9,84.8c-23.5,68.3-2.3,140.9,68.8,161.5
					c27.9,8.1,57.6,11.9,86.1,9.2c3.9-16.5,5.8-24.7,9.7-41.2C326,558.9,306.8,563.8,276.1,554.4z"/>
				<path class="st10" d="M1151.9,388.9c-16,87.7-34.7,174.2-56.4,260.5c16.3-2.2,24.4-3.4,40.5-5.9
					c14.6-61.1,27.4-122.7,38.4-184.7c20.4,34.7,30.9,51.9,52.5,86.1c-18.3,4-27.5,5.8-45.9,9.3c-2,10.7-3.1,16-5.1,26.7
					c34.1-6.3,64.1-14.9,88.6,21.7c3.7,5.5,5.6,8.3,9.3,13.8c22.2-5.2,33.2-7.9,55.3-13.8c-49.4-72.1-96.1-145.5-140.6-221.1
					C1174,384.7,1166.6,386.1,1151.9,388.9z"/>
				<path class="st10" d="M625.2,423.9c0,0,19.3,6.2,16.7,32.7c-6.5,66.1-13,132.2-19.5,198.3c23,2.6,34.4,3.7,57.4,5.6
					c5.9-82.6,11.8-165.2,17.7-247.9c-33.5-2.7-37-2.5-70.4-6.9C626.1,414.4,626.2,415.2,625.2,423.9z"/>
				<path class="st10" d="M1507.4,488.9c-10.1,3.9-7.6,2.4-17.8,6.2c0.1,16.2-12.6,27.2-34.8,34.9c-12.2,4.2-42.5,14.6-45.8,14.4
					c-2.3-3.3-41.2-143.4-59-206.8c-32.5,10.4-35.4,10.6-68.3,19.3c2,8.5,1.9,8.2,3.9,16.7c0,0,20.4,0.8,26.8,26.5
					c16.2,64.2,32.3,128.4,48.5,192.6c54.8-15.6,108.9-33.7,162.2-54.3C1515.4,513.6,1515.2,513.8,1507.4,488.9z"/>
				<path class="st10" d="M792.1,471.4c-2.2-14.6,11.1-25.7,25.3-25.5c24.9,0.2,45.8,9.3,67.9,19.5c-0.5-17.7-0.7-26.5-1.2-44.2
					c-20.2-3.4-39.5-6.7-60.2-6.9c-48.5-0.3-83,21.4-84.7,65.1c-2.9,78.3,111.9,74.7,121.4,126.5c3.7,20.6-26.2,33.2-47.1,33
					c-29-0.3-54.1-14.5-77.3-28.9c-0.9,19-1.3,28.4-2.2,47.4c24,6.6,48.2,12.4,73.2,13.1c45.3,1.2,111.1-19.1,108.9-77.6
					C913.2,517.9,800,524.2,792.1,471.4z"/>
				<path class="st10" d="M1113.7,395.7c-3.6,0.5-5.4,0.9-9,1.4c-27.1,4.3-40.6,6.2-67.8,9.4c-47.8,5.6-71.7,7.6-119.7,9.8
					c0.4,26.3,0.7,25.5,1,51.8c7.2-0.4,13.7-0.7,20.1-1.1c4.3-17.7,14.9-21.6,43.1-23.1c5.3,72.1,10.6,144.2,15.8,216.3
					c23-1.9,34.5-3,57.4-5.6c-7.2-71.9-14.4-143.8-21.6-215.7c1.7-0.2,2.6-0.3,4.3-0.5c7-0.8,10.5-1.2,17.4-2.1
					c15.4-1.6,37.1-2.9,50.3,0.9C1108.6,420.6,1110.4,412.2,1113.7,395.7z"/>
			</g>
		</g>
		
			<linearGradient id="SVGID_14_" gradientUnits="userSpaceOnUse" x1="1398.8644" y1="-699.2494" x2="1844.6658" y2="-699.2494" gradientTransform="matrix(-1 0 0 1 2442.1687 906.0679)">
			<stop  offset="2.747200e-02" style="stop-color:#BDBDBC"/>
			<stop  offset="0.7303" style="stop-color:#FFFFFF"/>
			<stop  offset="1" style="stop-color:#9F9D9D"/>
		</linearGradient>
		<path class="st15" d="M820.3,66.2c120.1,1.4,223,53.2,223,53.2s-8.9,31.2-28.6,80.4c-33.6,83.8-108.3,147.7-194.3,147.7
			c-86,0-160.7-63.9-194.3-147.7c-19.7-49.2-28.6-80.4-28.6-80.4s103-51.7,223.1-53.2"/>
		
			<linearGradient id="SVGID_15_" gradientUnits="userSpaceOnUse" x1="1615.8696" y1="-563.5932" x2="1622.4427" y2="-839.6674" gradientTransform="matrix(-1 0 0 1 2442.1687 906.0679)">
			<stop  offset="0" style="stop-color:#25913F"/>
			<stop  offset="9.356630e-02" style="stop-color:#1D7A3A"/>
			<stop  offset="0.2019" style="stop-color:#166635"/>
			<stop  offset="0.3186" style="stop-color:#10562F"/>
			<stop  offset="0.4446" style="stop-color:#0B4B2A"/>
			<stop  offset="0.5845" style="stop-color:#084327"/>
			<stop  offset="0.7491" style="stop-color:#063E24"/>
			<stop  offset="1" style="stop-color:#053D23"/>
		</linearGradient>
		<path class="st16" d="M820.3,66.2c86.6,1.4,162.9,29.3,162.9,29.3s-9.6,52.4-23.9,100.5c-24.2,81.9-88.6,144.3-138.9,144.3
			c-50.3,0-114.7-62.4-138.9-144.3c-14.2-48.1-23.8-100.5-23.8-100.5s76.2-27.8,162.9-29.3"/>
		<g>
			<linearGradient id="SVGID_16_" gradientUnits="userSpaceOnUse" x1="28.9433" y1="223.0882" x2="1616.7308" y2="223.0882">
				<stop  offset="0" style="stop-color:#D1C385"/>
				<stop  offset="5.633800e-02" style="stop-color:#ECE6D6"/>
				<stop  offset="0.1521" style="stop-color:#BDAF7F"/>
				<stop  offset="0.1977" style="stop-color:#AA9F76"/>
				<stop  offset="0.2479" style="stop-color:#9C926F"/>
				<stop  offset="0.2634" style="stop-color:#A49972"/>
				<stop  offset="0.3577" style="stop-color:#D1C385"/>
				<stop  offset="0.4592" style="stop-color:#FFFFFF"/>
				<stop  offset="0.569" style="stop-color:#D1C385"/>
				<stop  offset="0.6017" style="stop-color:#CABC82"/>
				<stop  offset="0.6438" style="stop-color:#B6AA7A"/>
				<stop  offset="0.6841" style="stop-color:#9C926F"/>
				<stop  offset="0.7067" style="stop-color:#A69B73"/>
				<stop  offset="0.7423" style="stop-color:#C1B47E"/>
				<stop  offset="0.7585" style="stop-color:#D1C385"/>
				<stop  offset="0.8427" style="stop-color:#FFFFFF"/>
				<stop  offset="1" style="stop-color:#D1C385"/>
			</linearGradient>
			<path class="st17" d="M635.9,102.8c0,0,7.5,56.1,31.7,120c31.4,83,97.1,113,117.2,120.5c4.9,0.9-94.5-15.2-140.7-95.6
				c-28.5-49.5-46.6-128.3-46.6-128.3L635.9,102.8z"/>
			<linearGradient id="SVGID_17_" gradientUnits="userSpaceOnUse" x1="28.921" y1="223.0882" x2="1616.796" y2="223.0882">
				<stop  offset="0" style="stop-color:#D1C385"/>
				<stop  offset="5.633800e-02" style="stop-color:#ECE6D6"/>
				<stop  offset="0.1521" style="stop-color:#9C926F"/>
				<stop  offset="0.2479" style="stop-color:#9C926F"/>
				<stop  offset="0.2634" style="stop-color:#A49972"/>
				<stop  offset="0.3577" style="stop-color:#D1C385"/>
				<stop  offset="0.4592" style="stop-color:#FFFFFF"/>
				<stop  offset="0.569" style="stop-color:#D1C385"/>
				<stop  offset="0.6017" style="stop-color:#CABC82"/>
				<stop  offset="0.6438" style="stop-color:#B6AA7A"/>
				<stop  offset="0.6841" style="stop-color:#9C926F"/>
				<stop  offset="0.7067" style="stop-color:#A69B73"/>
				<stop  offset="0.7423" style="stop-color:#C1B47E"/>
				<stop  offset="0.7585" style="stop-color:#D1C385"/>
				<stop  offset="0.8427" style="stop-color:#FFFFFF"/>
				<stop  offset="1" style="stop-color:#D1C385"/>
			</linearGradient>
			<path class="st19" d="M1043.3,119.4c0,0-18.2,78.8-46.6,128.3c-46.2,80.5-145.6,96.5-140.7,95.6c20-7.5,85.8-37.4,117.1-120.5
				c24.2-64,31.7-120,31.7-120L1043.3,119.4z"/>
		</g>
		<g>
			<g>
				
					<linearGradient id="SVGID_18_" gradientUnits="userSpaceOnUse" x1="1553.2885" y1="-1108.5577" x2="1637.4963" y2="-1108.5577" gradientTransform="matrix(1.1602 -1.600000e-02 -1.600000e-02 1.1602 -1049.1035 1442.025)">
					<stop  offset="0" style="stop-color:#9C926F"/>
					<stop  offset="0.2515" style="stop-color:#D1C385"/>
					<stop  offset="0.5" style="stop-color:#ECE6D6"/>
					<stop  offset="0.75" style="stop-color:#D1C385"/>
					<stop  offset="1" style="stop-color:#9C926F"/>
				</linearGradient>
				<polygon class="st20" points="820.3,260.7 771.6,69.5 820.3,0 869.3,69.5 				"/>
				<linearGradient id="SVGID_19_" gradientUnits="userSpaceOnUse" x1="798.8663" y1="14.7471" x2="798.8663" y2="266.1398">
					<stop  offset="0" style="stop-color:#ADA17A"/>
					<stop  offset="0.1534" style="stop-color:#D1C385"/>
					<stop  offset="0.319" style="stop-color:#ECE6D6"/>
					<stop  offset="0.6687" style="stop-color:#D1C385"/>
					<stop  offset="1" style="stop-color:#ADA17A"/>
				</linearGradient>
				<polygon class="st21" points="820.6,240.4 777.1,70.4 820.5,8.8 820.6,240.4 				"/>
			</g>
		</g>
		<g>
			
				<linearGradient id="SVGID_20_" gradientUnits="userSpaceOnUse" x1="2308.135" y1="-703.5208" x2="2448.2461" y2="-703.5208" gradientTransform="matrix(1 0 0 1 -1633.0449 906.0679)">
				<stop  offset="0" style="stop-color:#ADA17A"/>
				<stop  offset="0.5" style="stop-color:#ECE6D6"/>
				<stop  offset="1" style="stop-color:#D1C385"/>
			</linearGradient>
			<path class="st22" d="M725.8,206.6c-4.1-0.2-4.5-6.5-4-8.6c0.9-3.8,2.8-7.3,4.5-10.9c7.3-14.8-11.6-23-22.5-24.6
				c-15.6-2.3-35.6,11.2-31.2,28.1c1.3,5,3.3,7.5,8,12c4.8,4.5,5.1,12.5,2,17.8c7.4-1.2,24.9-13.9,19.3-22.8
				c-3.5-5.5-16.6-9.8-15.8-17.5c0.9-9.2,16.8-9.1,22.5-7.4c19.1,5.5,3.2,23.4,3.8,35.4c0.2,4.2,4.2,6,6,9.4c2.7,5.2,1,7.4-2,11.6
				c-2.6,3.7-6.7,8.9-6.7,8.9s1.8,13.9-0.2,17.7c-1.8,3.5-9,9.8-9,9.8s7.4-0.7,14.2,7.4c6.7,8.2,13.9,13,13.9,13s3.4-7.9,2.6-13.3
				c-0.6-3.5-10.2-8.4-10.9-11.8c-0.5-2.1,10-16.1,15.5-21.1c3.8-3.4,4-14.5,7.6-12.4c4.1,2.4,10.3,8,12.6,12.2
				c8.1,15.3,4.1,17.5,4.1,17.5s9.2,8.2,11.2,12c3.5,6.7,0.7,14.6,0,14.5c4.9,0.2,15.5,2.7,20.1,4c3.5,1.1,11.6,5.8,14.5,7.9
				c1.3-5,3.9-15.2,0.1-19.4c-2.6-2.9-14.8-2.6-17.7-5c-3.5-3-10.2-44.8-10.9-47.4c-2.4-8.4-33.2-10-25.7-21.5
				c2.9-4.5,15.3-11.8,17.3-11.6c1.2,0.1,3.2,2.1,4.2,2.8c1.9,1.2,3.8,2.8,5.9,3.7c3.5,1.3,8,2.9,11.8,2.7
				c1.4-0.1,18.3-5.1,18.4-2.1c-0.2-4.8,0-11.8,4.1-14.9c-2.6-2.8-5.5-4.6-8.3-6.8c-6.7,3-11.8,13.6-20.9,9.2
				c-5.3-2.6-5.1-5.7-9.6-9.7c5-9.2,1.7-10.9,7.9-18.3c2.2-2.5,5.4-7.6,8.2-9.2c2.6-1.4,6.4,0.4,8.7-1.3c1.4-1,1.6-6.4,1.7-8.1
				c0.3-3.4-2-6.9,1-9.6c-4.8-1.9-10.9-0.1-14.2,3.8c-3,3.5-4.7,7.9-8,11.3c-1,1-8.8,10-10,9.3c-5.2-2.8-7.6-7.1-12.6-10
				c-0.1,0,0.2-2.5,0.2-2.8c-5.4-1-10.7,4.6-16,1.5c-3.8-2.2-1.8-10.4,4-10.9c3.1-0.3,3.2,1.8,5.1,2.8c1.2,0.7,4.2,0.7,5.6,0.7
				c4.1,0.2,4.6-2.2,5.3-5.7c0.6-2.8,1.7-9.2,0.4-9.5c-4.7-1.1-10.3-2.7-15-3c-0.1-2.5,0.5-3.2-2-4.3c-6-2.7-17.3-4-25.3-0.9
				c-5.8,2.2-12,4.5-14.4,9.6c-1.3,2.8-1.9,8.6-1.8,12.8c0.2,11.1,8.6,21.5,17.3,27.9c4.9,3.6,11.4,5.8,15.3,10.6
				c5.8,7,0.4,13.5-3.1,20.6C731.7,195,726,206.6,725.8,206.6z"/>
			<path class="st18" d="M751.4,139.2c2.2-0.6,3.4-1.7,5.9-1.9c3.1-0.2,6,0.4,8.9-1.1c1.8-0.9,2.1-2.1,2.7-3.8
				c0.8,1.3,2.3,3.4,2.2,5.4c-0.5,6-9.5,1-12.4,0.8c-1.5-0.2-5.9-0.4-6.6,0.7"/>
		</g>
		<g>
			
				<linearGradient id="SVGID_21_" gradientUnits="userSpaceOnUse" x1="6265.9053" y1="-703.522" x2="6407.2383" y2="-703.522" gradientTransform="matrix(-1 0 0 1 7233.7021 906.0679)">
				<stop  offset="0" style="stop-color:#ADA17A"/>
				<stop  offset="0.5" style="stop-color:#ECE6D6"/>
				<stop  offset="1" style="stop-color:#D1C385"/>
			</linearGradient>
			<path class="st23" d="M908.9,192.8c-3.6-7.1-9-13.7-3.2-20.6c4-4.8,10.4-7,15.3-10.6c8.6-6.4,17.1-16.7,17.3-27.9
				c0.1-4.2-0.6-10-1.8-12.8c-2.3-5.2-8.6-7.4-14.4-9.6c-8-3-19.3-1.8-25.3,0.9c-2.4,1.1-2,1.8-2.1,4.3c-4.8,0.3-10.2,1.9-15,3
				c-1.3,0.3-0.2,6.7,0.4,9.5c0.7,3.5,1.2,6,5.3,5.7c1.4-0.1,4.4-0.1,5.6-0.7c1.8-0.9,1.9-3.1,5.1-2.8c5.8,0.5,7.8,8.7,4,10.9
				c-5.2,3.1-10.7-2.5-16-1.5c0,0.3,0.3,2.8,0.3,2.8c-4.9,2.9-7.4,7.2-12.6,10c-1.2,0.6-9-8.3-9.9-9.3c-3.3-3.3-5.1-7.8-8-11.3
				c-3.3-3.9-9.4-5.7-14.2-3.8c3.1,2.7,0.8,6.2,1,9.6c0.1,1.7,0.3,7.1,1.7,8.1c2.3,1.7,6.1-0.1,8.8,1.3c2.7,1.6,6.1,6.7,8.1,9.2
				c6.2,7.3,2.9,9,7.9,18.3c-4.4,4-4.3,7.1-9.5,9.7c-9.1,4.4-14.1-6.2-20.9-9.2c-2.8,2.2-5.7,4-8.4,6.8c4.2,3.1,4.4,10.1,4.2,14.9
				c0.2-3,17,2,18.4,2.1c3.8,0.2,8.3-1.3,11.8-2.7c2.1-0.8,4-2.5,5.8-3.7c1.1-0.7,3.1-2.7,4.3-2.8c2-0.3,14.4,7.1,17.3,11.6
				c7.4,11.5-23.3,13.1-25.7,21.5c-0.7,2.6-7.3,44.4-10.9,47.4c-2.9,2.5-15.1,2.1-17.7,5c-3.7,4.2-1.2,14.5,0.2,19.4
				c2.8-2.1,11-6.8,14.5-7.9c4.6-1.4,15.2-3.8,20.1-4c-0.8,0.1-3.6-7.9-0.1-14.5c2-3.8,11.3-12,11.3-12s-4-2.2,4.1-17.5
				c2.2-4.2,8.5-9.8,12.5-12.2c3.6-2.1,3.8,8.9,7.6,12.4c5.5,5,16,19,15.5,21.1c-0.8,3.4-10.4,8.3-10.9,11.8
				c-0.9,5.4,2.5,13.3,2.5,13.3s7.2-4.8,13.9-13c6.7-8.2,14.1-7.4,14.1-7.4s-7.1-6.3-9-9.8c-2-3.8-0.2-17.7-0.2-17.7
				s-4.2-5.3-6.7-8.9c-3-4.3-4.7-6.5-2-11.6c1.9-3.4,5.9-5.2,6-9.4c0.6-12-15.3-30,3.8-35.4c5.7-1.6,21.6-1.7,22.5,7.4
				c0.8,7.7-12.4,12-15.8,17.5c-5.6,8.9,13.1,21.6,20.5,22.8c-3.2-5.3-2.8-13.2,2-17.8c4.7-4.5,6.7-7,8-12
				c4.3-16.9-16.8-30.4-32.4-28.1c-11,1.6-29.8,9.9-22.5,24.6c1.7,3.5,3.7,7,4.5,10.9c0.5,2.1,0,8.3-4,8.6
				C915.7,206.6,910,195,908.9,192.8z"/>
			<path class="st18" d="M890.3,139.2c-2.2-0.6-3.4-1.7-5.9-1.9c-3.1-0.2-5.9,0.4-8.8-1.1c-1.8-0.9-2.2-2.1-2.7-3.8
				c-0.8,1.3-2.3,3.4-2.2,5.4c0.5,6,9.5,1,12.5,0.8c1.5-0.2,5.8-0.4,6.5,0.7"/>
		</g>
		<g>
			<linearGradient id="SVGID_22_" gradientUnits="userSpaceOnUse" x1="28.9475" y1="697.7366" x2="1616.7629" y2="697.7366">
				<stop  offset="0" style="stop-color:#D1C385"/>
				<stop  offset="7.195120e-02" style="stop-color:#E9E1CF"/>
				<stop  offset="8.386826e-02" style="stop-color:#E8DFCB"/>
				<stop  offset="9.662811e-02" style="stop-color:#E4DBC0"/>
				<stop  offset="0.1098" style="stop-color:#DFD3AD"/>
				<stop  offset="0.1231" style="stop-color:#D6C893"/>
				<stop  offset="0.1293" style="stop-color:#D1C385"/>
				<stop  offset="0.1674" style="stop-color:#C6B880"/>
				<stop  offset="0.2304" style="stop-color:#A79C73"/>
				<stop  offset="0.25" style="stop-color:#9C926F"/>
				<stop  offset="0.339" style="stop-color:#D1C385"/>
				<stop  offset="0.4592" style="stop-color:#FFFFFF"/>
				<stop  offset="0.5585" style="stop-color:#D1C385"/>
				<stop  offset="0.6067" style="stop-color:#B9AC7B"/>
				<stop  offset="0.6744" style="stop-color:#9C926F"/>
				<stop  offset="0.7646" style="stop-color:#D1C385"/>
				<stop  offset="0.8338" style="stop-color:#FFFFFF"/>
				<stop  offset="1" style="stop-color:#D1C385"/>
			</linearGradient>
			<path class="st24" d="M821.3,790c524.9,0.2,821.3-161.3,821.3-161.3l-8.3-23.3c0,0-333,141.4-813,141c-478.6-0.4-813-141-813-141
				L0,628.7C0,628.7,297.2,789.8,821.3,790z"/>
		</g>
	</g>
</g>
</svg>
